<?xml version="1.0" encoding="UTF-8" standalone="no"?>
<!-- Created with Inkscape (http://www.inkscape.org/) -->

<svg
   width="13.353231mm"
   height="21.70385mm"
   viewBox="0 0 13.353232 21.70385"
   version="1.1"
   id="svg1"
   xml:space="preserve"
   sodipodi:docname="brainsofsteel.svg"
   inkscape:version="1.4 (e7c3feb100, 2024-10-09)"
   xmlns:inkscape="http://www.inkscape.org/namespaces/inkscape"
   xmlns:sodipodi="http://sodipodi.sourceforge.net/DTD/sodipodi-0.dtd"
   xmlns:xlink="http://www.w3.org/1999/xlink"
   xmlns="http://www.w3.org/2000/svg"
   xmlns:svg="http://www.w3.org/2000/svg"><sodipodi:namedview
     id="namedview1"
     pagecolor="#505050"
     bordercolor="#eeeeee"
     borderopacity="1"
     inkscape:showpageshadow="0"
     inkscape:pageopacity="0"
     inkscape:pagecheckerboard="0"
     inkscape:deskcolor="#505050"
     inkscape:document-units="mm"
     inkscape:zoom="4.876247"
     inkscape:cx="-17.636514"
     inkscape:cy="43.476058"
     inkscape:window-width="1920"
     inkscape:window-height="1008"
     inkscape:window-x="0"
     inkscape:window-y="0"
     inkscape:window-maximized="1"
     inkscape:current-layer="svg1" /><defs
     id="defs1"><linearGradient
       id="linearGradient24"><stop
         style="stop-color:#f9e4a3;stop-opacity:1;"
         offset="0"
         id="stop24" /><stop
         style="stop-color:#e9e4d3;stop-opacity:1;"
         offset="0.21608873"
         id="stop26" /><stop
         style="stop-color:#f9e4a3;stop-opacity:1;"
         offset="0.38157895"
         id="stop27" /><stop
         style="stop-color:#f9e4a3;stop-opacity:1;"
         offset="0.48854685"
         id="stop31" /><stop
         style="stop-color:#ffffff;stop-opacity:1;"
         offset="0.56883341"
         id="stop30" /><stop
         style="stop-color:#f9e4a3;stop-opacity:1;"
         offset="0.61368102"
         id="stop28" /><stop
         style="stop-color:#dcbd5c;stop-opacity:1;"
         offset="0.79520744"
         id="stop29" /><stop
         style="stop-color:#f9e4a3;stop-opacity:1;"
         offset="1"
         id="stop25" /></linearGradient><linearGradient
       xlink:href="#linearGradient24"
       id="linearGradient35"
       gradientUnits="userSpaceOnUse"
       x1="-13.801792"
       y1="148.06564"
       x2="112.66289"
       y2="148.06564"
       gradientTransform="matrix(0.20859453,0,0,0.20859453,3.128959,-18.672504)" /></defs><path
     id="path24"
     style="fill:#ffffff;fill-opacity:1;stroke:none;stroke-width:2.9941;stroke-linecap:round;stroke-linejoin:round;stroke-opacity:1;paint-order:fill markers stroke"
     d="m 6.64148,2e-5 c -6.83474,0 -5.85576,7.25814 -5.85576,7.25814 0,0 -0.77078,-0.0216 -0.78542,0.37754 -0.0187,0.5061 0.83822,0.36998 0.83822,0.36998 v 13.69817 h 7.67222 c 0.0755,0 0,-1.66117 0,-1.66117 H 4.58402 l 0.0231,-0.6599 h 5.92691 V 17.08686 H 8.57967 c 0,0 -0.72083,-10e-5 -0.72083,-0.93454 0,-0.93443 0.833,-0.84808 0.833,-0.84808 h 1.78205 v -0.86839 c 0,0 2e-5,-0.008 -0.28314,-0.0115 -0.28318,-0.004 -0.77015,-0.20769 -0.77015,-0.83823 0,-0.63054 0.53607,-0.94382 0.73997,-0.94382 0.20389,0 0.36254,-0.0115 0.36631,0.33962 0.004,0.35114 -0.17763,0.29456 -0.17763,0.29456 0,0 -0.31333,-0.007 -0.31333,0.27193 -0.007,0.24541 0.39262,0.21894 0.39262,0.21894 h 2.19322 V 8.09482 c 0,0 0.73147,0.0961 0.73147,-0.39513 0,-0.49126 -0.75294,-0.50189 -0.75294,-0.50189 0,0 0.85433,-7.17643 -5.95902,-7.1978 z m -0.0888,0.42607 c 0.43693,-0.003 1.83537,0.26921 1.85089,0.47095 0.0161,0.20824 -0.24021,0.19225 -0.24021,0.19225 0,0 -0.8009,-0.0214 -1.01983,0.0534 -0.21893,0.0748 -0.43266,0.299 -0.43266,0.299 L 6.50278,1.43669 5.86725,0.83346 H 5.60034 V 0.57723 c 0,0 0.52861,-0.12833 0.91308,-0.1497 0.0126,-7.4e-4 0.0251,-7.4e-4 0.0393,-0.001 z M 4.80874,1.05254 c 0.0162,10e-4 0.0337,0.003 0.0528,0.008 0.30516,0.0678 0.0709,0.3636 0.35102,0.50247 C 5.49263,1.70186 5.58638,1.33639 5.82509,1.53831 6.06377,1.74016 5.71905,1.89326 5.90239,2.14638 6.08583,2.39948 6.33854,2.11958 6.4561,2.40921 6.57362,2.69888 6.19719,2.67406 6.242,2.98343 6.2869,3.29281 6.64078,3.16243 6.61024,3.47353 6.57974,3.78464 6.25789,3.58782 6.15381,3.88258 6.04974,4.17734 6.42366,4.22627 6.25211,4.48756 6.0804,4.74884 5.88711,4.42496 5.65795,4.63764 5.42882,4.85027 5.73705,5.06741 5.46379,5.21902 5.1904,5.37063 5.16961,4.99393 4.86789,5.07572 4.56618,5.15752 4.73835,5.49324 4.42578,5.50043 4.11324,5.50743 4.26986,5.16421 3.96468,5.09641 3.65952,5.02861 3.65602,5.40586 3.37596,5.26699 3.09591,5.12813 3.39406,4.89713 3.15547,4.69528 2.91679,4.49342 2.73821,4.82577 2.55475,4.57266 2.37131,4.31954 2.74291,4.25348 2.62545,3.96381 2.50793,3.67415 2.19525,3.88541 2.15045,3.57604 2.10555,3.26666 2.46534,3.38081 2.49587,3.0697 2.52637,2.75859 2.15156,2.80068 2.25567,2.50592 2.35973,2.21116 2.625,2.47922 2.79662,2.21794 2.96815,1.95665 2.61679,1.81959 2.84592,1.60697 3.07506,1.39435 3.18544,1.7551 3.45883,1.60397 3.73219,1.45236 3.48463,1.16761 3.78645,1.08583 4.08816,1.00403 4.01817,1.37482 4.33069,1.36762 4.62368,1.36062 4.56575,1.03783 4.80879,1.05334 Z m 3.13781,0.34194 c 0.0162,7.4e-4 0.0352,0.004 0.0567,0.0106 0.1726,0.0505 0.0811,0.16205 0.22124,0.27483 C 8.3648,1.79269 8.45393,1.67917 8.54033,1.83696 8.62663,1.99481 8.48313,2.0089 8.50243,2.1878 8.52183,2.3667 8.66534,2.34949 8.61474,2.52219 8.56414,2.69491 8.45273,2.60319 8.33993,2.74345 8.22707,2.88367 8.3405,2.97309 8.18275,3.05948 8.02486,3.14588 8.01087,3.00198 7.83191,3.02138 7.65303,3.04078 7.67025,3.18428 7.49751,3.13375 7.3249,3.08325 7.41641,2.9717 7.27626,2.85892 7.13613,2.74614 7.04682,2.85966 6.96043,2.70168 6.87393,2.54382 7.01763,2.52994 6.99833,2.35103 6.97893,2.17213 6.83541,2.18914 6.88601,2.01644 6.93661,1.84373 7.04821,1.93544 7.16103,1.79518 7.27388,1.65497 7.16023,1.56574 7.31802,1.47935 7.47591,1.39295 7.48991,1.53665 7.66886,1.51725 7.82532,1.50025 7.83178,1.3883 7.94659,1.39444 Z m 1.45557,0.36573 c 0.0248,-7.4e-4 0.0413,7.4e-4 0.0413,7.4e-4 h 0.80806 l 0.72856,0.72876 V 2.82952 H 9.33763 c -0.1586,0 -0.17368,-0.23035 -0.17368,-0.23035 V 1.99884 c 0,0 -0.004,0.006 0.004,-0.0888 C 9.17875,1.78253 9.328,1.76243 9.40235,1.76035 Z M 4.39097,1.94897 c -0.25096,0 -0.534,0.11469 -0.534,0.11469 0,0 -0.0221,0.11287 0.0597,0.223 0.0818,0.11012 0.26729,0.21757 0.45819,0.21757 0.19089,0 0.40302,-0.13544 0.4928,-0.24156 0.0897,-0.10612 0.0571,-0.18296 0.0571,-0.18296 0,0 -0.28284,-0.13074 -0.53381,-0.13074 z M 7.75255,2.06289 A 0.2265412,0.2265412 0 0 0 7.52589,2.28956 0.2265412,0.2265412 0 0 0 7.75255,2.51604 0.2265412,0.2265412 0 0 0 7.97904,2.28956 0.2265412,0.2265412 0 0 0 7.75255,2.06289 Z M 3.40171,2.3528 c -0.002,-10e-6 -0.004,2e-4 -0.004,2e-4 0,0 -0.21104,0.22948 -0.28779,0.46842 -0.0768,0.23894 -0.054,0.54348 -0.054,0.54348 0,0 0.10047,0.0554 0.23034,0.0113 C 3.41616,3.332 3.57524,3.18834 3.63362,3.0066 3.69192,2.82485 3.62862,2.58124 3.55432,2.46332 3.48992,2.36011 3.41833,2.35303 3.40128,2.35288 Z m 2.00078,0.0669 c 0,0 -0.11429,0.012 -0.19553,0.12262 -0.0813,0.11052 -0.12936,0.31962 -0.0734,0.50208 0.0562,0.18247 0.24816,0.34534 0.376,0.39997 0.12774,0.0546 0.19146,7.4e-4 0.19146,7.4e-4 0,0 0.0418,-0.30881 -0.0319,-0.5487 C 5.59542,2.65654 5.40242,2.41967 5.40242,2.41967 Z M 4.36158,2.99547 A 0.25096246,0.25096246 0 0 0 4.11053,3.24651 0.25096246,0.25096246 0 0 0 4.36158,3.49736 0.25096246,0.25096246 0 0 0 4.61243,3.24651 0.25096246,0.25096246 0 0 0 4.36158,2.99547 Z m 5.9161,0.30945 h 1.1554 c 0,0 0.28691,0.4116 0.36999,0.80805 0.0831,0.39645 0.0755,0.61175 0.0755,0.61175 h -0.4607 c 0,0 -0.14713,-0.35495 -0.49454,-0.74384 C 10.57596,3.59199 10.27,3.53527 10.27,3.53527 Z m -2.35878,0.066 c 0.29529,-0.0231 0.23036,0.37069 0.58679,0.37385 0.38022,0.003 0.28882,-0.44634 0.65719,-0.35219 0.36837,0.0942 0.0723,0.44475 0.4075,0.62432 0.33514,0.17959 0.46296,-0.26094 0.74539,-0.007 0.28243,0.25456 -0.14264,0.42735 0.0707,0.7421 0.2133,0.31472 0.53141,-0.0158 0.66318,0.34078 0.13187,0.35665 -0.32477,0.31205 -0.28218,0.68988 0.0425,0.3778 0.47766,0.23278 0.42859,0.60981 -0.049,0.37703 -0.43248,0.12531 -0.57035,0.47964 -0.0807,0.20757 0.0396,0.31911 0.1107,0.43826 H 8.79326 c -0.004,-0.008 -0.005,-0.0149 -0.0108,-0.0226 -0.0802,-0.14627 -0.286,-0.30638 -0.516,-0.33808 -0.14371,-0.0198 -0.30641,0.0226 -0.43884,0.0849 -0.0795,0.0374 -0.14821,0.082 -0.19534,0.12436 -0.0651,0.0585 -0.089,0.11257 -0.0973,0.15143 H 6.19178 C 6.25728,7.17623 6.41794,7.06692 6.33244,6.83538 6.20057,6.47873 5.8128,6.72388 5.77021,6.34606 5.72771,5.96826 6.16018,6.12062 6.20923,5.7436 6.25843,5.36656 5.801,5.40322 5.93886,5.04888 6.07666,4.6945 6.389,5.03058 6.60766,4.71951 6.82632,4.40847 6.40427,4.22826 6.69106,3.97857 6.97779,3.72892 7.09807,4.1719 7.43625,3.99807 7.75327,3.83514 7.51855,3.51234 7.79269,3.40025 c 0.0183,-0.007 0.0388,-0.014 0.0619,-0.0195 0.0232,-0.006 0.0443,-0.009 0.0641,-0.0104 z M 3.53032,3.75348 c -0.0721,-7.4e-4 -0.13905,0.007 -0.18915,0.0219 -0.13367,0.0384 -0.14892,0.1203 -0.14892,0.1203 0,0 0.16292,0.26604 0.37155,0.40538 0.20872,0.13934 0.50769,0.20095 0.50769,0.20095 0,0 0.0811,-0.0815 0.0743,-0.21855 C 4.13879,4.14647 4.04424,3.95409 3.88547,3.8481 3.78627,3.7819 3.6507,3.755 3.53038,3.7535 Z m 1.6393,0.0443 c -0.08,-1.6e-4 -0.16399,0.0142 -0.2404,0.0478 -0.17476,0.0768 -0.31462,0.28622 -0.35413,0.41949 -0.0395,0.13328 0.0215,0.19032 0.0215,0.19032 0,0 0.31178,0.006 0.54153,-0.095 0.22977,-0.10096 0.44253,-0.3199 0.44253,-0.3199 V 4.0403 c 0,0 -0.0251,-0.11214 -0.14426,-0.18006 -0.0671,-0.0382 -0.16381,-0.0623 -0.26671,-0.0625 z m -3.55498,0.3665 v 2e-4 c 0.0836,-0.004 0.13833,0.0583 0.3754,0.57152 0.25297,0.54747 1.35933,1.12905 1.44996,1.13471 0.0906,0.006 0.25297,0.0961 0.25297,0.2698 0,0.17368 -0.24929,0.13596 -0.24929,0.13596 H 1.60882 c 0,0 -0.0644,1.3e-4 -0.1965,-0.0113 C 1.28027,6.25387 1.32172,5.79701 1.34452,5.22311 1.36712,4.6492 1.49936,4.16197 1.59749,4.16575 c 0.005,-7.4e-4 0.0108,-0.001 0.0179,-0.002 z m 6.85063,0.29901 c 0,0 -0.3789,0.007 -0.65352,0.14042 -0.27463,0.13323 -0.52356,0.40905 -0.52356,0.40905 0,0 0.0361,0.13507 0.18393,0.21217 0.14802,0.0771 0.4079,0.0963 0.61678,-0.005 C 8.29778,5.11857 8.45799,4.85765 8.49988,4.69386 8.54168,4.53007 8.46528,4.46332 8.46528,4.46332 Z M 9.1685,4.58185 c 0,0 -0.1186,0.074 -0.14874,0.23808 -0.0302,0.16407 0.028,0.41847 0.18625,0.58835 0.15825,0.16987 0.45505,0.24597 0.62392,0.23789 0.16884,-0.008 0.20985,-0.10077 0.20985,-0.10077 0,0 -0.11823,-0.36016 -0.32627,-0.5835 C 9.50543,4.73857 9.1685,4.58186 9.1685,4.58186 Z M 7.01666,5.55778 c -0.0386,-0.001 -0.0639,0.009 -0.073,0.0131 v 1.9e-4 c -0.002,0.001 -0.004,0.002 -0.004,0.002 0,0 -0.10909,0.36311 -0.0662,0.66532 0.0429,0.30221 0.22937,0.62335 0.22937,0.62335 0,0 0.13941,0.007 0.25801,-0.11004 C 7.47944,6.63443 7.57738,6.39284 7.54477,6.16297 7.51207,5.93309 7.3127,5.70057 7.16956,5.6106 7.10696,5.5712 7.05509,5.559 7.01651,5.5578 Z M 8.45038,5.73437 A 0.30523961,0.30523961 0 0 0 8.33519,5.76457 0.30523961,0.30523961 0 0 0 8.19381,6.17246 0.30523961,0.30523961 0 0 0 8.6017,6.31365 0.30523961,0.30523961 0 0 0 8.74309,5.90614 0.30523961,0.30523961 0 0 0 8.45047,5.7344 Z M 9.97035,6.14013 C 9.87665,6.13413 9.75818,6.15903 9.64543,6.21343 9.55773,6.25573 9.47355,6.31593 9.40774,6.3933 9.2572,6.57014 9.21541,6.87344 9.24303,7.04024 9.27063,7.207 9.36737,7.23713 9.36737,7.23713 c 0,0 0.34449,-0.159 0.5423,-0.39146 0.19783,-0.23246 0.31429,-0.58485 0.31429,-0.58485 v -2e-4 c 0,0 -0.087,-0.10941 -0.25356,-0.12048 z m -8.3766,0.38082 h 3.73021 v 0.75989 l -3.78321,0.007 c 0,0 -0.3398,-0.0226 -0.3398,-0.39262 0,-0.37001 0.3928,-0.37482 0.3928,-0.37482 z m 4.35898,1.9211 h 5.13145 v 0.63534 l -0.55005,0.0106 -0.22435,0.46456 h 0.43265 v 0.65681 l -3.85535,0.016 0.0108,-0.63012 2.62704,-0.005 0.19747,-0.49647 -4.23424,-0.005 c 0,0 0.0108,-0.0533 0.0162,-0.36303 0.005,-0.30968 0.4485,-0.28295 0.4485,-0.28295 z m 2.74791,7.46991 c -0.0445,3.8e-4 -0.22222,0.0172 -0.22222,0.24853 0,0.26432 0.17889,0.29901 0.17889,0.29901 l 1.80736,0.003 V 15.91264 H 8.71068 c 0,0 -0.004,-2.7e-4 -0.0108,-1.9e-4 z" /><g
     id="text3"
     style="font-size:4.03531px;font-family:'Cambria Math';-inkscape-font-specification:'Cambria Math, Normal';stroke-width:0.571934;stroke-linecap:round;stroke-linejoin:round;stroke-dasharray:0.571934, 1.7158;stroke-opacity:0.972549;paint-order:stroke fill markers"
     transform="rotate(39.494054,232.27801,-254.43869)"
     aria-label="At voluptas delectus voluptatem impedit&#10;architecto voluptatibus molestias. Quidem&#10;iusto quaerat ducimus quia ducimus harum&#10;um recusandae nam accusantium ad suscipit." /><text
     xml:space="preserve"
     style="font-size:7.05556px;font-family:'Cambria Math';-inkscape-font-specification:'Cambria Math, Normal';text-align:start;writing-mode:lr-tb;direction:ltr;text-anchor:start;fill:#c73b00;fill-opacity:0.769184;stroke-width:1;stroke-linecap:round;stroke-linejoin:round;stroke-dasharray:1, 3;stroke-opacity:0.972549;paint-order:stroke fill markers"
     x="-34.443363"
     y="-219.18059"
     id="text2"><tspan
       id="tspan2"
       style="stroke-width:1"
       x="-34.443363"
       y="-219.18059" /></text></svg>
