<?xml version="1.0" encoding="UTF-8" standalone="no"?>
<!-- Created with Inkscape (http://www.inkscape.org/) -->

<svg
   width="31.330751mm"
   height="23.791861mm"
   viewBox="0 0 31.330752 23.791861"
   version="1.1"
   id="svg1"
   xml:space="preserve"
   sodipodi:docname="brunsviga.svg"
   inkscape:version="1.4 (e7c3feb100, 2024-10-09)"
   xmlns:inkscape="http://www.inkscape.org/namespaces/inkscape"
   xmlns:sodipodi="http://sodipodi.sourceforge.net/DTD/sodipodi-0.dtd"
   xmlns:xlink="http://www.w3.org/1999/xlink"
   xmlns="http://www.w3.org/2000/svg"
   xmlns:svg="http://www.w3.org/2000/svg"><sodipodi:namedview
     id="namedview1"
     pagecolor="#505050"
     bordercolor="#eeeeee"
     borderopacity="1"
     inkscape:showpageshadow="0"
     inkscape:pageopacity="0"
     inkscape:pagecheckerboard="0"
     inkscape:deskcolor="#505050"
     inkscape:document-units="mm"
     inkscape:zoom="4.4483"
     inkscape:cx="44.286581"
     inkscape:cy="56.42605"
     inkscape:window-width="1920"
     inkscape:window-height="1008"
     inkscape:window-x="0"
     inkscape:window-y="0"
     inkscape:window-maximized="1"
     inkscape:current-layer="svg1" /><defs
     id="defs1"><linearGradient
       id="linearGradient24"><stop
         style="stop-color:#f9e4a3;stop-opacity:1;"
         offset="0"
         id="stop24" /><stop
         style="stop-color:#e9e4d3;stop-opacity:1;"
         offset="0.21608873"
         id="stop26" /><stop
         style="stop-color:#f9e4a3;stop-opacity:1;"
         offset="0.38157895"
         id="stop27" /><stop
         style="stop-color:#f9e4a3;stop-opacity:1;"
         offset="0.48854685"
         id="stop31" /><stop
         style="stop-color:#ffffff;stop-opacity:1;"
         offset="0.56883341"
         id="stop30" /><stop
         style="stop-color:#f9e4a3;stop-opacity:1;"
         offset="0.61368102"
         id="stop28" /><stop
         style="stop-color:#dcbd5c;stop-opacity:1;"
         offset="0.79520744"
         id="stop29" /><stop
         style="stop-color:#f9e4a3;stop-opacity:1;"
         offset="1"
         id="stop25" /></linearGradient><linearGradient
       xlink:href="#linearGradient24"
       id="linearGradient35"
       gradientUnits="userSpaceOnUse"
       x1="-13.801792"
       y1="148.06564"
       x2="112.66289"
       y2="148.06564"
       gradientTransform="matrix(0.20859453,0,0,0.20859453,3.128959,-18.672504)" /></defs><g
     id="g53"
     transform="matrix(0.34690909,0,0,0.34690909,-21.650385,-23.55953)"
     style="stroke:#ffffff;stroke-opacity:1"><path
       style="opacity:1;fill:none;fill-opacity:1;stroke:#ffffff;stroke-width:2;stroke-linecap:round;stroke-linejoin:round;stroke-dasharray:none;stroke-opacity:1;paint-order:stroke fill markers"
       d="m 101.80626,132.11407 c 3.12112,1.56057 4.50083,0.24726 4.50083,0.24726 l 2.49813,-2.24766 m 8.4599,-5.62624 16.45057,5.3474 c 0,0 -2.01959,1.83917 -0.0413,2.6491 2.20211,0.90157 4.25073,-1.66348 4.25073,-1.66348 0,0 1.86548,-2.286 5.01377,-5.79199 m 5.60455,-5.92398 c 0.97037,-1.12477 1.97486,-2.30795 2.69215,-3.2385 2.1489,-2.78776 -4.2544,-4.16815 -4.2544,-4.16815 l -8.04981,-1.91578"
       id="path26" /><path
       style="opacity:1;fill:none;fill-opacity:1;stroke:#ffffff;stroke-width:2;stroke-linecap:round;stroke-linejoin:round;stroke-dasharray:none;stroke-opacity:1;paint-order:stroke fill markers"
       d="m 111.41604,105.44075 c -0.39014,0.84188 -1.95071,2.56672 -2.13551,3.96301 -0.18481,1.39629 -0.47228,1.97124 -1.02669,2.58725 -0.55441,0.61601 -1.14989,1.66323 -1.33469,2.11497 -0.18481,0.45175 -3.039,4.57903 -4.10675,5.97532 -1.06779,1.3963 -1.02669,4.88703 -1.02669,4.88703 0,0 0.0206,7.14574 -0.0821,9.13752 -0.10267,1.99178 -1.786438,1.25256 -1.786438,1.25256 0,0 -31.888895,-12.27918 -33.572661,-12.91573 -1.683769,-0.63654 -2.051963,-2.80162 -2.051963,-2.80162 l -0.755015,-7.08554 c 0,0 -0.517601,-2.93816 0.527733,-4.05524 1.644338,-1.75719 6.160121,-6.28333 6.611864,-7.06361 0.451742,-0.78028 0.246404,-2.135508 0.821349,-2.751521"
       id="path27" /><path
       style="opacity:1;fill:none;fill-opacity:1;stroke:#ffffff;stroke-width:2;stroke-linecap:round;stroke-linejoin:round;stroke-dasharray:none;stroke-opacity:1;paint-order:stroke fill markers"
       d="m 71.498478,98.685148 38.735252,8.587232 c 0,0 2.00369,-2.55031 2.37329,-4.43942 0.36961,-1.8891 0.0821,-7.884951 3.20327,-10.84181 3.12112,-2.956859 5.79051,-2.29978 8.21349,-6.652932 2.42298,-4.353153 7.92602,-13.798672 9.19912,-14.168279 l 1.27309,-0.369607 -34.784156,-1.889104 c 0,0 -1.026686,-0.123203 -2.587249,1.642698 -1.560565,1.765903 -10.061533,11.622095 -10.061533,11.622095 0,0 -1.4699,1.383608 -2.617374,1.775994 -1.85971,0.635939 -5.642338,1.243699 -7.845536,4.526325 -1.644156,2.449688 -1.505051,5.49216 -2.492381,6.653723 -0.987327,1.161566 -2.609283,3.553085 -2.609283,3.553085 z"
       id="path28" /><path
       style="opacity:1;fill:none;fill-opacity:1;stroke:#ffffff;stroke-width:2;stroke-linecap:round;stroke-linejoin:round;stroke-dasharray:none;stroke-opacity:1;paint-order:stroke fill markers"
       d="m 134.49599,70.800332 c 0,0 0.45174,-0.164272 1.49896,0.636545 1.04722,0.800815 0.67761,3.963011 0.67761,3.963011 l -0.3391,5.828386 m -0.49366,5.894936 -0.82293,11.742077 m -0.99717,9.520583 -7.26529,6.49026 m -5.77877,4.96569 -3.75156,3.55732"
       id="path29" /><path
       style="opacity:1;fill:none;fill-opacity:1;stroke:#ffffff;stroke-width:1.5;stroke-linecap:round;stroke-linejoin:round;stroke-dasharray:none;stroke-opacity:1;paint-order:stroke fill markers"
       d="M 97.740596,112.85343 71.868085,105.62555"
       id="path30" /><path
       style="opacity:1;fill:none;fill-opacity:1;stroke:#ffffff;stroke-width:1;stroke-linecap:round;stroke-linejoin:round;stroke-dasharray:none;stroke-opacity:1;paint-order:stroke fill markers"
       d="m 99.836699,100.28577 c 0,0 0.774571,-1.444694 1.276261,-4.020023 0.50677,-2.601409 1.43143,-5.274149 3.48469,-6.745576 2.19893,-1.575815 5.61736,-2.620137 5.61736,-2.620137"
       id="path31" /><path
       style="opacity:1;fill:none;fill-opacity:1;stroke:#ffffff;stroke-width:1.5;stroke-linecap:round;stroke-linejoin:round;stroke-dasharray:none;stroke-opacity:1;paint-order:stroke fill markers"
       d="M 118.11637,82.017739 93.722294,79.471551"
       id="path33" /><path
       style="opacity:1;fill:none;fill-opacity:1;stroke:#ffffff;stroke-width:1.5;stroke-linecap:round;stroke-linejoin:round;stroke-dasharray:none;stroke-opacity:1;paint-order:stroke fill markers"
       d="m 78.311966,119.84433 3.020066,0.98733 c 0,0 1.054039,0.0915 1.095105,1.54942 0.04107,1.4579 0.102669,2.93633 0.102669,2.93633 0,0 -0.0308,0.64681 -0.636546,0.65708 -0.605745,0.0103 -2.371648,-0.0103 -2.371648,-0.0103 l -1.796701,0.30801 c 0,0 -0.759748,0.154 -1.129355,0.0103 -0.369607,-0.14373 -2.905524,-1.11909 -2.905524,-1.11909 0,0 -0.390142,-0.0616 -0.431208,-0.86241 -0.04107,-0.80082 -0.05133,-1.6119 -0.05133,-1.6119 0,0 -0.0616,-0.45174 0.287472,-0.82135 0.349073,-0.36961 1.078222,-1.41359 1.150819,-1.66042 0.0726,-0.24683 0.210534,-0.98007 0.210534,-0.98007 0,0 0,-0.35573 0.537223,-0.19601 0.537223,0.15971 2.918424,0.81308 2.918424,0.81308 z"
       id="path34" /><path
       style="opacity:1;fill:none;fill-opacity:1;stroke:#ffffff;stroke-width:1;stroke-linecap:round;stroke-linejoin:round;stroke-dasharray:none;stroke-opacity:1;paint-order:stroke fill markers"
       d="m 84.043257,97.226216 c 0,0 0.774576,-1.4447 1.276266,-4.020029 0.50677,-2.601409 1.43143,-5.274149 3.48469,-6.745576 2.19893,-1.575815 4.078964,-2.686293 4.078964,-2.686293"
       id="path35" /><path
       style="opacity:1;fill:none;fill-opacity:1;stroke:#ffffff;stroke-width:1;stroke-linecap:round;stroke-linejoin:round;stroke-dasharray:none;stroke-opacity:1;paint-order:stroke fill markers"
       d="m 85.738984,97.580847 c 0,0 0.774576,-1.4447 1.276266,-4.020029 0.50677,-2.601409 1.43143,-5.274149 3.48469,-6.745576 2.19893,-1.575815 4.2227,-2.645225 4.2227,-2.645225"
       id="path36" /><path
       style="opacity:1;fill:none;fill-opacity:1;stroke:#ffffff;stroke-width:1;stroke-linecap:round;stroke-linejoin:round;stroke-dasharray:none;stroke-opacity:1;paint-order:stroke fill markers"
       d="m 87.402217,97.940187 c 0,0 0.774576,-1.4447 1.276266,-4.020029 0.50677,-2.601409 1.43143,-5.274149 3.48469,-6.745576 2.19893,-1.575815 4.489639,-2.788961 4.489639,-2.788961"
       id="path37" /><path
       style="opacity:1;fill:none;fill-opacity:1;stroke:#ffffff;stroke-width:1;stroke-linecap:round;stroke-linejoin:round;stroke-dasharray:none;stroke-opacity:1;paint-order:stroke fill markers"
       d="m 89.147584,98.258459 c 0,0 0.774576,-1.4447 1.276266,-4.020029 0.50677,-2.601409 1.43143,-5.274149 3.48469,-6.745576 2.19893,-1.575815 4.510173,-2.768428 4.510173,-2.768428"
       id="path38" /><path
       style="opacity:1;fill:none;fill-opacity:1;stroke:#ffffff;stroke-width:1;stroke-linecap:round;stroke-linejoin:round;stroke-dasharray:none;stroke-opacity:1;paint-order:stroke fill markers"
       d="m 90.800549,98.586999 c 0,0 0.774576,-1.4447 1.276266,-4.020029 0.50677,-2.601409 1.43143,-5.274149 3.48469,-6.745576 2.19893,-1.575815 4.633385,-2.72736 4.633385,-2.72736"
       id="path39" /><path
       style="opacity:1;fill:none;fill-opacity:1;stroke:#ffffff;stroke-width:1;stroke-linecap:round;stroke-linejoin:round;stroke-dasharray:none;stroke-opacity:1;paint-order:stroke fill markers"
       d="m 92.556185,98.884738 c 0,0 0.774576,-1.4447 1.276266,-4.020029 0.50677,-2.601409 1.43143,-5.274149 3.48469,-6.745576 2.19893,-1.575815 4.797649,-2.72736 4.797649,-2.72736"
       id="path40" /><path
       style="opacity:1;fill:none;fill-opacity:1;stroke:#ffffff;stroke-width:1;stroke-linecap:round;stroke-linejoin:round;stroke-dasharray:none;stroke-opacity:1;paint-order:stroke fill markers"
       d="m 94.332355,99.223545 c 0,0 0.774576,-1.4447 1.276266,-4.020029 0.50677,-2.601409 1.43143,-5.274149 3.48469,-6.745576 2.198919,-1.575815 4.941379,-2.72736 4.941379,-2.72736"
       id="path41" /><path
       style="opacity:1;fill:none;fill-opacity:1;stroke:#ffffff;stroke-width:1;stroke-linecap:round;stroke-linejoin:round;stroke-dasharray:none;stroke-opacity:1;paint-order:stroke fill markers"
       d="m 96.129057,99.582885 c 0,0 0.774576,-1.444699 1.276266,-4.020028 0.50677,-2.601409 1.43143,-5.274149 3.484687,-6.745576 2.19892,-1.575815 5.20832,-2.706827 5.20832,-2.706827"
       id="path42" /><path
       style="opacity:1;fill:none;fill-opacity:1;stroke:#ffffff;stroke-width:1;stroke-linecap:round;stroke-linejoin:round;stroke-dasharray:none;stroke-opacity:1;paint-order:stroke fill markers"
       d="m 97.966826,99.911427 c 0,0 0.774576,-1.4447 1.276266,-4.020029 0.50677,-2.601409 1.431428,-5.274149 3.484688,-6.745576 2.19892,-1.575815 5.47526,-2.72736 5.47526,-2.72736"
       id="path43" /><path
       style="opacity:1;fill:none;fill-opacity:1;stroke:#ffffff;stroke-width:2;stroke-linecap:square;stroke-linejoin:round;stroke-dasharray:none;stroke-opacity:1;paint-order:stroke fill markers"
       d="m 120.338,97.135764 c 0,0 7.7244,1.771381 13.2999,1.887539 5.57551,0.116157 6.3886,-0.290391 6.09821,3.368537 -0.29039,3.65893 -2.90391,15.91342 -2.90391,15.91342 0,0 2.61352,1.27772 5.16896,1.21964 2.55544,-0.0581 6.27244,-1.16156 8.42134,0.11616 2.14889,1.27772 0.98733,5.40127 0.98733,5.40127 0,0 -1.36484,3.94932 -4.5301,2.61352 -3.16526,-1.3358 -2.70064,-2.14889 -4.44298,-3.02007 -1.74235,-0.87117 -8.30518,-2.75871 -8.85692,-2.9039 -0.55175,-0.1452 0.14519,-1.36484 0.20327,-4.38491 0.0581,-3.02006 0.5227,-11.84795 0.5227,-11.84795 0,0 -2.03273,0.23232 -3.0491,-0.55174 -1.01637,-0.78405 -1.481,-1.13252 -1.481,-1.13252 l -10.83158,-2.03274"
       id="path44" /><path
       style="opacity:1;fill:none;fill-opacity:1;stroke:#ffffff;stroke-width:2;stroke-linecap:butt;stroke-linejoin:round;stroke-dasharray:none;stroke-opacity:1;paint-order:stroke fill markers"
       d="m 112.94469,111.99623 c 1.59479,-4.50705 1.88076,-13.029026 5.1059,-19.234197 1.51705,-2.918804 3.39088,-3.328095 3.39088,-3.328095 l 6.67899,0.871175 c 0,0 1.79713,-0.04734 1.65945,2.622084 -0.12951,2.511013 -1.55143,2.652648 -1.55143,2.652648 l -6.96094,-1.067756 c 0,0 -2.25399,3.515978 -3.19855,8.936891 -0.81754,4.69197 -1.08734,6.64678 -1.19575,9.53366 m -0.0411,5.6393 c 0.87529,3.29214 0.33711,5.95277 -0.63681,8.9729 m 0,0 c -1.25212,3.88281 -5.51573,5.50427 -7.7397,2.07089 -2.0042,-3.09411 -0.27392,-8.13628 1.13132,-9.4908"
       id="path46" /><path
       style="opacity:1;fill:none;fill-opacity:1;stroke:#ffffff;stroke-width:1.5;stroke-linecap:square;stroke-linejoin:round;stroke-dasharray:none;stroke-opacity:1;paint-order:stroke fill markers"
       d="m 112.49745,117.46313 3.8622,0.84213 c 0,0 1.77139,0.31943 2.26505,-1.94562 0.49367,-2.26505 -1.3358,-2.81679 -1.3358,-2.81679 l -6.7661,-1.45196 c 0,0 -1.21965,-0.69693 -2.32313,0.52271 -1.1035,1.21964 0.0621,3.2606 0.0621,3.2606 l 4.39422,11.17036 c 0,0 1.17725,2.73114 3.26807,0.0305 2.09081,-2.70064 0.26135,-5.54647 0.26135,-5.54647 l -1.77139,-2.87487"
       id="path47" /><path
       style="opacity:1;fill:none;fill-opacity:1;stroke:#ffffff;stroke-width:2;stroke-linecap:butt;stroke-linejoin:round;stroke-dasharray:none;stroke-opacity:1;paint-order:stroke fill markers"
       d="m 128.85873,90.535986 6.56638,-9.262638 7.0181,0.784663 c 0,0 0.96442,0.754556 0.67694,2.376722 -0.2551,1.439508 -1.51949,1.601633 -1.51949,1.601633 l -4.9281,-0.65708 -4.68169,8.249852 c -0.85303,1.563757 -1.93611,2.27722 -2.87472,1.745368"
       id="path48" /><path
       style="fill:none;stroke:#ffffff;stroke-width:1.5;stroke-linecap:round;stroke-linejoin:round;stroke-dasharray:none;stroke-opacity:1;paint-order:stroke fill markers"
       d="m 100.39648,71.947266 a 1.5,1.5 0 0 0 -1.603511,1.386718 1.5,1.5 0 0 0 1.386721,1.605469 L 121.57422,76.5 a 1.5,1.5 0 0 0 1.60547,-1.388672 1.5,1.5 0 0 0 -1.38672,-1.603516 z"
       id="path49" /><path
       style="opacity:1;fill:none;fill-opacity:1;stroke:#ffffff;stroke-width:1.5;stroke-linecap:round;stroke-linejoin:round;stroke-dasharray:none;stroke-opacity:1;paint-order:stroke fill markers"
       d="m 133.42824,133.48984 -16.6734,-5.68785"
       id="path50" /><path
       style="opacity:1;fill:none;fill-opacity:1;stroke:#ffffff;stroke-width:1.5;stroke-linecap:round;stroke-linejoin:round;stroke-dasharray:none;stroke-opacity:1;paint-order:stroke fill markers"
       d="m 137.63455,116.80598 c 2.5183,-3.73175 8.26558,-2.91833 9.2868,-2.0224 0.7067,0.62 -3.41015,1.23208 -5.3703,4.26218"
       id="path52" /><path
       style="opacity:1;fill:none;fill-opacity:1;stroke:#ffffff;stroke-width:2;stroke-linecap:round;stroke-linejoin:round;stroke-dasharray:none;stroke-opacity:1;paint-order:stroke fill markers"
       d="m 121.20215,119.59358 0.0701,-2.83874 c 0,0 -0.1232,-2.58725 2.75152,-2.29978 2.87472,0.28747 6.65293,1.31416 6.65293,1.31416 0,0 2.70895,0.49891 2.76703,2.3002 0.0739,2.29363 -0.10122,5.84562 -0.10122,5.84562 0,0 1.85658,1.12484 1.03027,2.69599 -0.79726,1.5159 -2.41875,2.53709 -4.59272,1.9448"
       id="path53" /></g><g
     id="text3"
     style="font-size:4.03531px;font-family:'Cambria Math';-inkscape-font-specification:'Cambria Math, Normal';stroke-width:0.571934;stroke-linecap:round;stroke-linejoin:round;stroke-dasharray:0.571934, 1.7158;stroke-opacity:0.972549;paint-order:stroke fill markers"
     transform="rotate(39.494054,240.60874,-192.47857)"
     aria-label="At voluptas delectus voluptatem impedit&#10;architecto voluptatibus molestias. Quidem&#10;iusto quaerat ducimus quia ducimus harum&#10;um recusandae nam accusantium ad suscipit." /><text
     xml:space="preserve"
     style="font-size:7.05556px;font-family:'Cambria Math';-inkscape-font-specification:'Cambria Math, Normal';text-align:start;writing-mode:lr-tb;direction:ltr;text-anchor:start;fill:#c73b00;fill-opacity:0.769184;stroke-width:1;stroke-linecap:round;stroke-linejoin:round;stroke-dasharray:1, 3;stroke-opacity:0.972549;paint-order:stroke fill markers"
     x="6.8651395"
     y="-210.33284"
     id="text2"><tspan
       id="tspan2"
       style="stroke-width:1"
       x="6.8651395"
       y="-210.33284" /></text></svg>
