<?xml version="1.0" encoding="UTF-8" standalone="no"?>
<!-- Created with Inkscape (http://www.inkscape.org/) -->

<svg
   width="15.23021mm"
   height="15.22854mm"
   viewBox="0 0 15.230211 15.228541"
   version="1.1"
   id="svg1"
   xml:space="preserve"
   sodipodi:docname="lua.svg"
   inkscape:version="1.4 (e7c3feb100, 2024-10-09)"
   xmlns:inkscape="http://www.inkscape.org/namespaces/inkscape"
   xmlns:sodipodi="http://sodipodi.sourceforge.net/DTD/sodipodi-0.dtd"
   xmlns:xlink="http://www.w3.org/1999/xlink"
   xmlns="http://www.w3.org/2000/svg"
   xmlns:svg="http://www.w3.org/2000/svg"><sodipodi:namedview
     id="namedview1"
     pagecolor="#505050"
     bordercolor="#eeeeee"
     borderopacity="1"
     inkscape:showpageshadow="0"
     inkscape:pageopacity="0"
     inkscape:pagecheckerboard="0"
     inkscape:deskcolor="#505050"
     inkscape:document-units="mm"
     inkscape:zoom="1.7374175"
     inkscape:cx="-17.267006"
     inkscape:cy="-121.44461"
     inkscape:window-width="1920"
     inkscape:window-height="1008"
     inkscape:window-x="0"
     inkscape:window-y="0"
     inkscape:window-maximized="1"
     inkscape:current-layer="svg1" /><defs
     id="defs1"><linearGradient
       id="linearGradient24"><stop
         style="stop-color:#f9e4a3;stop-opacity:1;"
         offset="0"
         id="stop24" /><stop
         style="stop-color:#e9e4d3;stop-opacity:1;"
         offset="0.21608873"
         id="stop26" /><stop
         style="stop-color:#f9e4a3;stop-opacity:1;"
         offset="0.38157895"
         id="stop27" /><stop
         style="stop-color:#f9e4a3;stop-opacity:1;"
         offset="0.48854685"
         id="stop31" /><stop
         style="stop-color:#ffffff;stop-opacity:1;"
         offset="0.56883341"
         id="stop30" /><stop
         style="stop-color:#f9e4a3;stop-opacity:1;"
         offset="0.61368102"
         id="stop28" /><stop
         style="stop-color:#dcbd5c;stop-opacity:1;"
         offset="0.79520744"
         id="stop29" /><stop
         style="stop-color:#f9e4a3;stop-opacity:1;"
         offset="1"
         id="stop25" /></linearGradient><linearGradient
       xlink:href="#linearGradient24"
       id="linearGradient35"
       gradientUnits="userSpaceOnUse"
       x1="-13.801792"
       y1="148.06564"
       x2="112.66289"
       y2="148.06564"
       gradientTransform="matrix(0.20859453,0,0,0.20859453,3.128959,-18.672504)" /></defs><g
     id="text3"
     style="font-size:4.03531px;font-family:'Cambria Math';-inkscape-font-specification:'Cambria Math, Normal';stroke-width:0.571934;stroke-linecap:round;stroke-linejoin:round;stroke-dasharray:0.571934, 1.7158;stroke-opacity:0.972549;paint-order:stroke fill markers"
     transform="rotate(39.494054,259.56205,-296.28827)"
     aria-label="At voluptas delectus voluptatem impedit&#10;architecto voluptatibus molestias. Quidem&#10;iusto quaerat ducimus quia ducimus harum&#10;um recusandae nam accusantium ad suscipit." /><text
     xml:space="preserve"
     style="font-size:7.05556px;font-family:'Cambria Math';-inkscape-font-specification:'Cambria Math, Normal';text-align:start;writing-mode:lr-tb;direction:ltr;text-anchor:start;fill:#c73b00;fill-opacity:0.769184;stroke-width:1;stroke-linecap:round;stroke-linejoin:round;stroke-dasharray:1, 3;stroke-opacity:0.972549;paint-order:stroke fill markers"
     x="-54.830414"
     y="-246.08784"
     id="text2"><tspan
       id="tspan2"
       style="stroke-width:1"
       x="-54.830414"
       y="-246.08784" /></text><path
     fill="currentColor"
     fill-rule="evenodd"
     d="m 7.61257,1.88935 c 3.16124,0 5.72395,2.56268 5.72395,5.72395 0,3.16126 -2.56271,5.72394 -5.72395,5.72394 -3.16124,0 -5.72397,-2.56271 -5.72397,-5.72394 0,-3.16124 2.5627,-5.72395 5.72397,-5.72395 M 9.9836,3.56598 c 0.92589,0 1.67648,0.75056 1.67648,1.67644 0,0.92589 -0.75059,1.67648 -1.67648,1.67648 -0.92589,0 -1.67645,-0.75059 -1.67645,-1.67648 0,-0.92588 0.75056,-1.67644 1.67645,-1.67644 M 2.89483,2.2071 2.59677,1.86499 A 7.6299438,7.6299438 0 0 1 3.39346,1.25846 L 3.64399,1.63678 A 7.1688746,7.1688746 0 0 0 2.89483,2.2071 m -1.61395,9.66046 a 7.61507,7.61507 0 0 0 0.61096,0.79337 L 2.23228,12.36097 A 7.1688746,7.1688746 0 0 1 1.65782,11.61496 Z M 5.33316,0.81143 5.18892,0.38121 A 7.644817,7.644817 0 0 0 4.26239,0.76122 L 4.46172,1.16884 A 7.198621,7.198621 0 0 1 5.33316,0.81143 M 2.22759,2.87101 1.88699,2.57123 A 7.61507,7.61507 0 0 0 1.27642,3.36486 L 1.65351,3.61723 A 7.1688746,7.1688746 0 0 1 2.22756,2.87098 M 1.18221,4.43258 0.77534,4.2317 A 7.7043097,7.7043097 0 0 0 0.39173,5.15652 L 0.82133,5.3026 A 7.2283673,7.2283673 0 0 1 1.18221,4.43258 M 4.2686,14.46924 a 7.7043097,7.7043097 0 0 0 0.92684,0.37852 L 5.33923,14.41739 A 7.2283673,7.2283673 0 0 1 4.46722,14.06127 Z M 0.39316,10.07737 a 7.7043097,7.7043097 0 0 0 0.38575,0.92398 L 1.18542,10.79973 A 7.2581137,7.2581137 0 0 1 0.8224,9.9303 Z m 14.3738,-3.01694 0.45245,-0.0348 A 7.5853243,7.5853243 0 0 0 15.07674,6.03418 l -0.44387,0.0942 a 7.1391283,7.1391283 0 0 1 0.13409,0.93205 M 0.57684,6.2123 0.13189,6.1234 A 7.6745634,7.6745634 0 0 0 3.3e-4,7.11604 l 0.45274,0.03 A 7.2283673,7.2283673 0 0 1 0.57681,6.21233 M 0.45277,8.08775 0,8.11745 A 7.6001975,7.6001975 0 0 0 0.13166,9.11044 L 0.57654,9.02124 A 7.1391283,7.1391283 0 0 1 0.4528,8.08774 m 2.14917,5.27909 A 7.61507,7.61507 0 0 0 3.399,13.97294 L 3.64931,13.59445 A 7.1688746,7.1688746 0 0 1 2.89988,13.02451 Z m 9.04493,0.17949 0.25466,0.37555 a 7.61507,7.61507 0 0 0 0.79001,-0.61534 L 12.3897,12.96772 a 7.1688746,7.1688746 0 0 1 -0.7428,0.5786 M 7.17824,0.45292 7.15084,0 A 7.644817,7.644817 0 0 0 6.15737,0.12603 l 0.0866,0.44543 A 7.198621,7.198621 0 0 1 7.1783,0.45292 m 5.87132,11.84357 0.34387,0.29601 a 7.61507,7.61507 0 0 0 0.60176,-0.80036 l -0.37986,-0.2482 a 7.1688746,7.1688746 0 0 1 -0.56577,0.75258 m 1.02809,-1.57304 0.40908,0.19641 A 7.7043097,7.7043097 0 0 0 14.86022,9.99097 L 14.42908,9.84953 a 7.2283673,7.2283673 0 0 1 -0.35137,0.87395 m 0.69943,-2.7212 a 7.2134942,7.2134942 0 0 1 -0.11349,0.93496 l 0.4459,0.0841 a 7.6745634,7.6745634 0 0 0 0.12066,-0.99407 z m 0.0274,-2.93195 a 7.7340561,7.7340561 0 0 0 -0.39578,-0.9197 l -0.40431,0.20602 a 7.2729869,7.2729869 0 0 1 0.37248,0.86547 z M 6.16377,15.10241 a 7.6745634,7.6745634 0 0 0 0.99335,0.12613 l 0.0275,-0.45292 A 7.198621,7.198621 0 0 1 6.25032,14.65696 Z M 9.14427,0.1413 A 7.6745634,7.6745634 0 0 0 8.15223,0.00515 L 8.12013,0.45777 A 7.198621,7.198621 0 0 1 9.05318,0.58583 Z M 8.12641,14.77068 8.15861,15.2233 A 7.6001975,7.6001975 0 0 0 9.15086,15.08617 L 9.05916,14.64176 A 7.1391283,7.1391283 0 0 1 8.12637,14.77068 M 11.03242,0.79548 A 7.644817,7.644817 0 0 0 10.1099,0.40622 L 9.96137,0.83498 a 7.198621,7.198621 0 0 1 0.86758,0.36606 z m -1.06558,13.5954 0.14948,0.42844 a 7.7340561,7.7340561 0 0 0 0.92184,-0.39078 l -0.20382,-0.40542 a 7.2581137,7.2581137 0 0 1 -0.8675,0.36776 M 13.33669,3.56603 c 0.926,0 1.67662,-0.75065 1.67662,-1.67663 0,-0.92597 -0.75065,-1.67662 -1.67662,-1.67662 -0.92597,0 -1.67662,0.75065 -1.67662,1.67662 0,0.92598 0.75065,1.67663 1.67662,1.67663"
     clip-rule="evenodd"
     id="path1-96"
     style="fill:#ffffff;fill-opacity:1;stroke-width:0.0297464" /></svg>
