<?xml version="1.0" encoding="UTF-8" standalone="no"?>
<!-- Created with Inkscape (http://www.inkscape.org/) -->

<svg
   width="9.3000402mm"
   height="8.0395336mm"
   viewBox="0 0 9.3000407 8.0395338"
   version="1.1"
   id="svg1"
   xml:space="preserve"
   sodipodi:docname="mui.svg"
   inkscape:version="1.4 (e7c3feb100, 2024-10-09)"
   xmlns:inkscape="http://www.inkscape.org/namespaces/inkscape"
   xmlns:sodipodi="http://sodipodi.sourceforge.net/DTD/sodipodi-0.dtd"
   xmlns:xlink="http://www.w3.org/1999/xlink"
   xmlns="http://www.w3.org/2000/svg"
   xmlns:svg="http://www.w3.org/2000/svg"><sodipodi:namedview
     id="namedview1"
     pagecolor="#505050"
     bordercolor="#eeeeee"
     borderopacity="1"
     inkscape:showpageshadow="0"
     inkscape:pageopacity="0"
     inkscape:pagecheckerboard="0"
     inkscape:deskcolor="#505050"
     inkscape:document-units="mm"
     inkscape:zoom="1.6455142"
     inkscape:cx="16.408245"
     inkscape:cy="30.993352"
     inkscape:window-width="1920"
     inkscape:window-height="1008"
     inkscape:window-x="0"
     inkscape:window-y="0"
     inkscape:window-maximized="1"
     inkscape:current-layer="svg1" /><defs
     id="defs1"><linearGradient
       id="linearGradient24"><stop
         style="stop-color:#f9e4a3;stop-opacity:1;"
         offset="0"
         id="stop24" /><stop
         style="stop-color:#e9e4d3;stop-opacity:1;"
         offset="0.21608873"
         id="stop26" /><stop
         style="stop-color:#f9e4a3;stop-opacity:1;"
         offset="0.38157895"
         id="stop27" /><stop
         style="stop-color:#f9e4a3;stop-opacity:1;"
         offset="0.48854685"
         id="stop31" /><stop
         style="stop-color:#ffffff;stop-opacity:1;"
         offset="0.56883341"
         id="stop30" /><stop
         style="stop-color:#f9e4a3;stop-opacity:1;"
         offset="0.61368102"
         id="stop28" /><stop
         style="stop-color:#dcbd5c;stop-opacity:1;"
         offset="0.79520744"
         id="stop29" /><stop
         style="stop-color:#f9e4a3;stop-opacity:1;"
         offset="1"
         id="stop25" /></linearGradient><linearGradient
       xlink:href="#linearGradient24"
       id="linearGradient35"
       gradientUnits="userSpaceOnUse"
       x1="-13.801792"
       y1="148.06564"
       x2="112.66289"
       y2="148.06564"
       gradientTransform="matrix(0.20859453,0,0,0.20859453,3.128959,-18.672504)" /></defs><g
     id="text3"
     style="font-size:4.03531px;font-family:'Cambria Math';-inkscape-font-specification:'Cambria Math, Normal';stroke-width:0.571934;stroke-linecap:round;stroke-linejoin:round;stroke-dasharray:0.571934, 1.7158;stroke-opacity:0.972549;paint-order:stroke fill markers"
     transform="rotate(39.494054,207.00687,-241.0035)"
     aria-label="At voluptas delectus voluptatem impedit&#10;architecto voluptatibus molestias. Quidem&#10;iusto quaerat ducimus quia ducimus harum&#10;um recusandae nam accusantium ad suscipit." /><text
     xml:space="preserve"
     style="font-size:7.05556px;font-family:'Cambria Math';-inkscape-font-specification:'Cambria Math, Normal';text-align:start;writing-mode:lr-tb;direction:ltr;text-anchor:start;fill:#c73b00;fill-opacity:0.769184;stroke-width:1;stroke-linecap:round;stroke-linejoin:round;stroke-dasharray:1, 3;stroke-opacity:0.972549;paint-order:stroke fill markers"
     x="-31.668243"
     y="-200.0408"
     id="text2"><tspan
       id="tspan2"
       style="stroke-width:1"
       x="-31.668243"
       y="-200.0408" /></text><path
     fill="#007fff"
     d="M 7.83831,5.4896 A 0.25828253,0.25828253 0 0 0 7.96799,5.26641 l 0.005,-1.49495 A 0.25828253,0.25828253 0 0 1 8.10267,3.54823 L 8.91305,3.08274 A 0.25828253,0.25828253 0 0 1 9.30004,3.30669 V 6.02458 A 0.25828253,0.25828253 0 0 1 9.17035,6.24857 L 6.11201,8.00522 A 0.25828253,0.25828253 0 0 1 5.85518,8.00548 L 3.45508,6.63269 A 0.25828253,0.25828253 0 0 1 3.32484,6.40848 V 5.03802 c 0,-0.001 0.002,-0.002 0.003,-0.002 10e-4,8e-4 0.003,0 0.003,-0.002 v -0.001 c 0,-10e-4 5.2e-4,-0.002 0.001,-0.003 L 5.30859,3.89441 c 0.002,-0.001 6.7e-4,-0.004 -10e-4,-0.004 a 0.00207062,0.00207062 0 0 1 -0.002,-0.002 l 0.004,-1.34358 A 0.25831885,0.25831885 0 0 0 4.92244,2.32006 L 3.45336,3.16665 a 0.25828253,0.25828253 0 0 1 -0.25781,0 L 1.72178,2.31806 A 0.25828253,0.25828253 0 0 0 1.33453,2.54176 V 4.97005 A 0.25828253,0.25828253 0 0 1 0.94809,5.19455 L 0.1302,4.72688 A 0.25828253,0.25828253 0 0 1 0,4.5022 L 0.007,0.25779 A 0.25828253,0.25828253 0 0 1 0.39392,0.03442 l 2.80162,1.60905 a 0.25828253,0.25828253 0 0 0 0.2573,0 L 6.25363,0.03435 A 0.25828253,0.25828253 0 0 1 6.64061,0.25856 V 4.50395 A 0.25828253,0.25828253 0 0 1 6.51122,4.72794 l -1.4668,0.84474 a 0.25831885,0.25831885 0 0 0 6.7e-4,0.44819 l 0.8091,0.46063 a 0.25828253,0.25828253 0 0 0 0.2565,-5.5e-4 z M 8.00802,1.68129 A 0.25831885,0.25831885 0 0 0 8.39915,1.90267 L 9.17414,1.43769 A 0.25828253,0.25828253 0 0 0 9.29969,1.21631 V 0.26873 A 0.25831885,0.25831885 0 0 0 8.90856,0.04761 L 8.13361,0.51259 A 0.25828253,0.25828253 0 0 0 8.00802,0.734 v 0.94755 z"
     id="path1-29"
     style="fill:#ffffff;fill-opacity:1;stroke-width:0.0363266" /></svg>
