<?xml version="1.0" encoding="UTF-8" standalone="no"?>
<!-- Created with Inkscape (http://www.inkscape.org/) -->

<svg
   width="13.421503mm"
   height="15.08689mm"
   viewBox="0 0 13.421504 15.086891"
   version="1.1"
   id="svg1"
   xml:space="preserve"
   sodipodi:docname="react.svg"
   inkscape:version="1.4 (e7c3feb100, 2024-10-09)"
   xmlns:inkscape="http://www.inkscape.org/namespaces/inkscape"
   xmlns:sodipodi="http://sodipodi.sourceforge.net/DTD/sodipodi-0.dtd"
   xmlns:xlink="http://www.w3.org/1999/xlink"
   xmlns="http://www.w3.org/2000/svg"
   xmlns:svg="http://www.w3.org/2000/svg"><sodipodi:namedview
     id="namedview1"
     pagecolor="#505050"
     bordercolor="#eeeeee"
     borderopacity="1"
     inkscape:showpageshadow="0"
     inkscape:pageopacity="0"
     inkscape:pagecheckerboard="0"
     inkscape:deskcolor="#505050"
     inkscape:document-units="mm"
     inkscape:zoom="1.7537301"
     inkscape:cx="-155.09798"
     inkscape:cy="11.974477"
     inkscape:window-width="1920"
     inkscape:window-height="1008"
     inkscape:window-x="0"
     inkscape:window-y="0"
     inkscape:window-maximized="1"
     inkscape:current-layer="svg1" /><defs
     id="defs1"><linearGradient
       id="linearGradient24"><stop
         style="stop-color:#f9e4a3;stop-opacity:1;"
         offset="0"
         id="stop24" /><stop
         style="stop-color:#e9e4d3;stop-opacity:1;"
         offset="0.21608873"
         id="stop26" /><stop
         style="stop-color:#f9e4a3;stop-opacity:1;"
         offset="0.38157895"
         id="stop27" /><stop
         style="stop-color:#f9e4a3;stop-opacity:1;"
         offset="0.48854685"
         id="stop31" /><stop
         style="stop-color:#ffffff;stop-opacity:1;"
         offset="0.56883341"
         id="stop30" /><stop
         style="stop-color:#f9e4a3;stop-opacity:1;"
         offset="0.61368102"
         id="stop28" /><stop
         style="stop-color:#dcbd5c;stop-opacity:1;"
         offset="0.79520744"
         id="stop29" /><stop
         style="stop-color:#f9e4a3;stop-opacity:1;"
         offset="1"
         id="stop25" /></linearGradient><linearGradient
       xlink:href="#linearGradient24"
       id="linearGradient35"
       gradientUnits="userSpaceOnUse"
       x1="-13.801792"
       y1="148.06564"
       x2="112.66289"
       y2="148.06564"
       gradientTransform="matrix(0.20859453,0,0,0.20859453,3.128959,-18.672504)" /></defs><g
     id="text3"
     style="font-size:4.03531px;font-family:'Cambria Math';-inkscape-font-specification:'Cambria Math, Normal';stroke-width:0.571934;stroke-linecap:round;stroke-linejoin:round;stroke-dasharray:0.571934, 1.7158;stroke-opacity:0.972549;paint-order:stroke fill markers"
     transform="rotate(39.494054,222.2384,-298.74997)"
     aria-label="At voluptas delectus voluptatem impedit&#10;architecto voluptatibus molestias. Quidem&#10;iusto quaerat ducimus quia ducimus harum&#10;um recusandae nam accusantium ad suscipit." /><text
     xml:space="preserve"
     style="font-size:7.05556px;font-family:'Cambria Math';-inkscape-font-specification:'Cambria Math, Normal';text-align:start;writing-mode:lr-tb;direction:ltr;text-anchor:start;fill:#c73b00;fill-opacity:0.769184;stroke-width:1;stroke-linecap:round;stroke-linejoin:round;stroke-dasharray:1, 3;stroke-opacity:0.972549;paint-order:stroke fill markers"
     x="-64.917397"
     y="-222.91209"
     id="text2"><tspan
       id="tspan2"
       style="stroke-width:1"
       x="-64.917397"
       y="-222.91209" /></text><path
     fill="currentColor"
     d="M 12.07271,7.82706 Q 11.93986,7.67544 11.79274,7.52306 11.89538,7.41443 11.99175,7.30655 C 13.20248,5.94572 13.71392,4.58036 13.24019,3.76039 12.78608,2.97361 11.43504,2.73901 9.74306,3.0679 Q 9.49331,3.1169 9.24595,3.17804 9.19835,3.0151 9.14559,2.85367 C 8.57154,1.12397 7.64446,-7.6e-4 6.69699,0 5.78879,0 4.91073,1.05381 4.35027,2.68395 Q 4.26737,2.92534 4.19717,3.16974 4.03181,3.12904 3.86524,3.09434 C 2.08046,2.72848 0.64344,2.96986 0.17048,3.79135 c -0.45337,0.78678 0.02,2.07444 1.15262,3.37341 q 0.16907,0.19236 0.347,0.37717 -0.2104,0.215 -0.39604,0.43073 c -1.10509,1.28087 -1.55165,2.54666 -1.09904,3.33042 0.46768,0.81016 1.88434,1.07493 3.60952,0.73548 q 0.20983,-0.0415 0.41713,-0.0935 0.0755,0.26477 0.16678,0.52577 c 0.55821,1.59694 1.43098,2.61606 2.33619,2.61606 0.93537,0 1.87228,-1.09606 2.4403,-2.76013 q 0.0673,-0.1969 0.12744,-0.4081 0.26771,0.0664 0.53936,0.11766 c 1.66182,0.31456 2.98115,0.0679 3.43301,-0.71662 0.46692,-0.81092 -0.0142,-2.17025 -1.17227,-3.4926 M 0.72871,4.11272 C 1.01989,3.60731 2.19442,3.40968 3.73552,3.7265 Q 3.8835,3.7567 4.03651,3.7944 A 15.46399,15.46399 0 0 0 3.71816,5.81452 15.84116,15.84116 0 0 0 2.13181,7.09087 Q 1.96673,6.91963 1.8097,6.7401 C 0.83885,5.6282 0.45564,4.58721 0.72871,4.11273 M 3.66085,8.43359 C 3.27614,8.14166 2.91781,7.84295 2.59271,7.54272 2.91707,7.244 3.27536,6.94679 3.66008,6.65561 q -0.02,0.44431 -0.02,0.88937 0,0.44506 0.02,0.88861 m 0,2.97211 A 5.4312551,5.4312551 0 0 1 1.66862,11.4766 1.3351835,1.3351835 0 0 1 0.73248,10.981 C 0.45707,10.50576 0.81628,9.48891 1.7614,8.39361 Q 1.9393,8.18767 2.12952,7.99229 a 15.46399,15.46399 0 0 0 1.58938,1.28239 15.84116,15.84116 0 0 0 0.32137,2.04577 q -0.18874,0.0475 -0.38095,0.086 z M 9.0159,5.34155 Q 8.63646,5.10243 8.24797,4.87914 7.86476,4.65887 7.47325,4.45445 A 14.332479,14.332479 0 0 1 8.78508,3.97544 13.578137,13.578137 0 0 1 9.01601,5.34155 M 4.95991,2.89296 C 5.43968,1.49743 6.15028,0.64502 6.69791,0.64502 7.28103,0.64427 8.03838,1.56381 8.53398,3.05665 Q 8.58218,3.203 8.62438,3.35084 A 15.46399,15.46399 0 0 0 6.71891,4.08256 15.08682,15.08682 0 0 0 4.81798,3.34255 Q 4.88358,3.11626 4.95967,2.89296 M 4.65794,3.96714 A 13.578137,13.578137 0 0 1 5.96295,4.45143 Q 5.1694,4.86028 4.41805,5.3423 C 4.47845,4.86104 4.55918,4.40013 4.65783,3.96714 M 4.41862,9.74539 Q 4.79351,9.98602 5.17975,10.2078 5.5735,10.43412 5.9771,10.64231 A 13.578137,13.578137 0 0 1 4.6615,11.14394 14.332479,14.332479 0 0 1 4.4186,9.74615 Z m 4.11567,2.37316 a 5.4312551,5.4312551 0 0 1 -0.93386,1.75988 1.3351835,1.3351835 0 0 1 -0.89617,0.56424 c -0.54992,0 -1.25067,-0.81845 -1.72743,-2.18457 Q 4.89243,12.01596 4.82145,11.76929 a 15.08682,15.08682 0 0 0 1.9085,-0.76188 15.84116,15.84116 0 0 0 1.92129,0.73849 q -0.0545,0.18783 -0.11689,0.37265 M 8.80748,11.1198 A 14.332479,14.332479 0 0 1 7.47834,10.6325 Q 7.8623,10.4311 8.25152,10.2063 8.65133,9.97548 9.03,9.73332 A 13.578137,13.578137 0 0 1 8.80762,11.1198 m 0.3372,-3.57784 q 0,0.68721 -0.043,1.3729 Q 8.54284,9.29354 7.92958,9.64808 7.31857,10.00036 6.72489,10.2938 6.10105,9.99508 5.50133,9.64959 4.90541,9.30637 4.33665,8.91864 4.28385,8.23219 4.28385,7.54423 q 0,-0.68721 0.0514,-1.37366 A 18.104184,18.104184 0 0 1 6.71744,4.79541 q 0.61555,0.29947 1.20922,0.64194 0.59593,0.34247 1.16921,0.72341 0.0491,0.68947 0.0491,1.3812 M 9.86611,3.7001 c 1.44985,-0.28137 2.54214,-0.092 2.81595,0.38246 0.29196,0.5054 -0.12601,1.62032 -1.17223,2.79558 q -0.0867,0.0973 -0.17962,0.19539 A 15.08682,15.08682 0 0 0 9.71403,5.80024 15.08682,15.08682 0 0 0 9.40854,3.80199 Q 9.64233,3.74469 9.86716,3.70015 M 9.76906,6.63076 A 13.578137,13.578137 0 0 1 10.8719,7.52692 13.578137,13.578137 0 0 1 9.77282,8.43817 q 0.0171,-0.44808 0.0171,-0.89616 0,-0.45562 -0.0199,-0.91125 m 2.91853,4.36688 c -0.27455,0.476 -1.33365,0.67439 -2.75559,0.40584 Q 9.68862,11.35748 9.43205,11.29334 A 15.08682,15.08682 0 0 0 9.72401,9.2702 15.08682,15.08682 0 0 0 11.33602,7.97651 q 0.13342,0.13804 0.25346,0.27458 a 5.4312551,5.4312551 0 0 1 1.05833,1.68822 1.3351835,1.3351835 0 0 1 0.0408,1.05834 M 6.03608,6.36524 A 1.3472529,1.3472529 0 1 0 7.87667,6.85858 1.3472529,1.3472529 0 0 0 6.03608,6.36524"
     id="path1-9"
     style="fill:#ffffff;fill-opacity:1;stroke-width:0.75434" /></svg>
