<?xml version="1.0" encoding="UTF-8" standalone="no"?>
<!-- Created with Inkscape (http://www.inkscape.org/) -->

<svg
   width="15.656796mm"
   height="15.089637mm"
   viewBox="0 0 15.656796 15.089637"
   version="1.1"
   id="svg1"
   xml:space="preserve"
   sodipodi:docname="vite.svg"
   inkscape:version="1.4 (e7c3feb100, 2024-10-09)"
   xmlns:inkscape="http://www.inkscape.org/namespaces/inkscape"
   xmlns:sodipodi="http://sodipodi.sourceforge.net/DTD/sodipodi-0.dtd"
   xmlns:xlink="http://www.w3.org/1999/xlink"
   xmlns="http://www.w3.org/2000/svg"
   xmlns:svg="http://www.w3.org/2000/svg"><sodipodi:namedview
     id="namedview1"
     pagecolor="#505050"
     bordercolor="#eeeeee"
     borderopacity="1"
     inkscape:showpageshadow="0"
     inkscape:pageopacity="0"
     inkscape:pagecheckerboard="0"
     inkscape:deskcolor="#505050"
     inkscape:document-units="mm"
     inkscape:zoom="1.2398487"
     inkscape:cx="-94.366351"
     inkscape:cy="33.8751"
     inkscape:window-width="1920"
     inkscape:window-height="1008"
     inkscape:window-x="0"
     inkscape:window-y="0"
     inkscape:window-maximized="1"
     inkscape:current-layer="svg1" /><defs
     id="defs1"><linearGradient
       id="linearGradient24"><stop
         style="stop-color:#f9e4a3;stop-opacity:1;"
         offset="0"
         id="stop24" /><stop
         style="stop-color:#e9e4d3;stop-opacity:1;"
         offset="0.21608873"
         id="stop26" /><stop
         style="stop-color:#f9e4a3;stop-opacity:1;"
         offset="0.38157895"
         id="stop27" /><stop
         style="stop-color:#f9e4a3;stop-opacity:1;"
         offset="0.48854685"
         id="stop31" /><stop
         style="stop-color:#ffffff;stop-opacity:1;"
         offset="0.56883341"
         id="stop30" /><stop
         style="stop-color:#f9e4a3;stop-opacity:1;"
         offset="0.61368102"
         id="stop28" /><stop
         style="stop-color:#dcbd5c;stop-opacity:1;"
         offset="0.79520744"
         id="stop29" /><stop
         style="stop-color:#f9e4a3;stop-opacity:1;"
         offset="1"
         id="stop25" /></linearGradient><linearGradient
       xlink:href="#linearGradient24"
       id="linearGradient35"
       gradientUnits="userSpaceOnUse"
       x1="-13.801792"
       y1="148.06564"
       x2="112.66289"
       y2="148.06564"
       gradientTransform="matrix(0.20859453,0,0,0.20859453,3.128959,-18.672504)" /></defs><g
     id="text3"
     style="font-size:4.03531px;font-family:'Cambria Math';-inkscape-font-specification:'Cambria Math, Normal';stroke-width:0.571934;stroke-linecap:round;stroke-linejoin:round;stroke-dasharray:0.571934, 1.7158;stroke-opacity:0.972549;paint-order:stroke fill markers"
     transform="rotate(39.494054,197.35965,-202.78938)"
     aria-label="At voluptas delectus voluptatem impedit&#10;architecto voluptatibus molestias. Quidem&#10;iusto quaerat ducimus quia ducimus harum&#10;um recusandae nam accusantium ad suscipit." /><text
     xml:space="preserve"
     style="font-size:7.05556px;font-family:'Cambria Math';-inkscape-font-specification:'Cambria Math, Normal';text-align:start;writing-mode:lr-tb;direction:ltr;text-anchor:start;fill:#c73b00;fill-opacity:0.769184;stroke-width:1;stroke-linecap:round;stroke-linejoin:round;stroke-dasharray:1, 3;stroke-opacity:0.972549;paint-order:stroke fill markers"
     x="-9.5666857"
     y="-185.18054"
     id="text2"><tspan
       id="tspan2"
       style="stroke-width:1"
       x="-9.5666857"
       y="-185.18054" /></text><path
     id="path66"
     style="fill:#ffffff;fill-opacity:1;stroke-width:1.383;stroke-dasharray:none"
     d="m 10.653842,4.7e-4 c -0.0152,-0.001 -0.0309,-5.7e-4 -0.0469,0.003 l -4.77534,0.98645 a 0.17221869,0.17221869 0 0 0 -0.0985,0.0603 0.19570305,0.19570305 0 0 0 -0.0428,0.11134 l -0.0401,0.71085 -0.023,0.40443 4.6e-4,-4.6e-4 -0.23096,4.11832 a 0.18787494,0.18787494 0 0 0 0.0621,0.15183 0.16439058,0.16439058 0 0 0 0.1523,0.0391 l 1.32921,-0.32437 c 0.12516,-0.0297 0.23679,0.0861 0.21165,0.21763 l -0.39569,2.04007 c -0.0266,0.13778 0.0956,0.25508 0.22315,0.2144 l 0.82128,-0.26271 c 0.12692,-0.0407 0.24974,0.0766 0.22222,0.2144 l -0.62711,3.20411 c -0.0391,0.20119 0.21283,0.30993 0.31839,0.13849 l 0.0709,-0.11502 3.89058,-8.19156 c 0.0657,-0.13699 -0.0472,-0.29352 -0.18957,-0.26456 l -1.36833,0.27882 c -0.129,0.0266 -0.23778,-0.10006 -0.20198,-0.23234 l 0.33725,-1.23444 0.12699,-0.46424 h -4.6e-4 l 0.42835,-1.56801 c 0.0321,-0.11644 -0.0476,-0.22746 -0.15413,-0.23557 z m 4.05161,1.04534 c -0.0464,0.002 -0.0933,0.007 -0.14125,0.0152 l -3.58047,0.63631 -0.16149,0.59031 3.84042,-0.68187 a 0.37105301,0.37105301 0 0 1 0.3897,0.54568 L 8.220402,14.3463 A 0.36792177,0.36792177 0 0 1 7.828852,14.52941 0.36792177,0.36792177 0 0 1 7.573502,14.3486 L 0.604872,2.15236 a 0.37105301,0.37105301 0 0 1 0.38832,-0.54798 l 4.01803,0.71684 0.058,0.0101 0.0391,-0.55626 -4.0171,-0.71637 a 0.91589031,0.91589031 0 0 0 -0.91145,0.36623 0.90806226,0.90806226 0 0 0 -0.0548,1.0021 l 6.9677,12.19623 a 0.92528412,0.92528412 0 0 0 1.61034,-0.006 l 6.83334,-12.19441 c 0.35959,-0.64214 -0.13549,-1.39929 -0.83093,-1.3766 z" /></svg>
