<?xml version="1.0" encoding="UTF-8" standalone="no"?>
<!-- Created with Inkscape (http://www.inkscape.org/) -->

<svg
   width="24.030037mm"
   height="10.784838mm"
   viewBox="0 0 24.030038 10.784838"
   version="1.1"
   id="svg1"
   xml:space="preserve"
   sodipodi:docname="webgl.svg"
   inkscape:version="1.4 (e7c3feb100, 2024-10-09)"
   xmlns:inkscape="http://www.inkscape.org/namespaces/inkscape"
   xmlns:sodipodi="http://sodipodi.sourceforge.net/DTD/sodipodi-0.dtd"
   xmlns:xlink="http://www.w3.org/1999/xlink"
   xmlns="http://www.w3.org/2000/svg"
   xmlns:svg="http://www.w3.org/2000/svg"><sodipodi:namedview
     id="namedview1"
     pagecolor="#505050"
     bordercolor="#eeeeee"
     borderopacity="1"
     inkscape:showpageshadow="0"
     inkscape:pageopacity="0"
     inkscape:pagecheckerboard="0"
     inkscape:deskcolor="#505050"
     inkscape:document-units="mm"
     inkscape:zoom="1.733273"
     inkscape:cx="-96.926449"
     inkscape:cy="118.27335"
     inkscape:window-width="1920"
     inkscape:window-height="1008"
     inkscape:window-x="0"
     inkscape:window-y="0"
     inkscape:window-maximized="1"
     inkscape:current-layer="svg1" /><defs
     id="defs1"><linearGradient
       id="linearGradient24"><stop
         style="stop-color:#f9e4a3;stop-opacity:1;"
         offset="0"
         id="stop24" /><stop
         style="stop-color:#e9e4d3;stop-opacity:1;"
         offset="0.21608873"
         id="stop26" /><stop
         style="stop-color:#f9e4a3;stop-opacity:1;"
         offset="0.38157895"
         id="stop27" /><stop
         style="stop-color:#f9e4a3;stop-opacity:1;"
         offset="0.48854685"
         id="stop31" /><stop
         style="stop-color:#ffffff;stop-opacity:1;"
         offset="0.56883341"
         id="stop30" /><stop
         style="stop-color:#f9e4a3;stop-opacity:1;"
         offset="0.61368102"
         id="stop28" /><stop
         style="stop-color:#dcbd5c;stop-opacity:1;"
         offset="0.79520744"
         id="stop29" /><stop
         style="stop-color:#f9e4a3;stop-opacity:1;"
         offset="1"
         id="stop25" /></linearGradient><linearGradient
       xlink:href="#linearGradient24"
       id="linearGradient35"
       gradientUnits="userSpaceOnUse"
       x1="-13.801792"
       y1="148.06564"
       x2="112.66289"
       y2="148.06564"
       gradientTransform="matrix(0.20859453,0,0,0.20859453,3.128959,-18.672504)" /></defs><g
     id="text3"
     style="font-size:4.03531px;font-family:'Cambria Math';-inkscape-font-specification:'Cambria Math, Normal';stroke-width:0.571934;stroke-linecap:round;stroke-linejoin:round;stroke-dasharray:0.571934, 1.7158;stroke-opacity:0.972549;paint-order:stroke fill markers"
     transform="rotate(39.494054,192.65518,-289.51799)"
     aria-label="At voluptas delectus voluptatem impedit&#10;architecto voluptatibus molestias. Quidem&#10;iusto quaerat ducimus quia ducimus harum&#10;um recusandae nam accusantium ad suscipit." /><text
     xml:space="preserve"
     style="font-size:7.05556px;font-family:'Cambria Math';-inkscape-font-specification:'Cambria Math, Normal';text-align:start;writing-mode:lr-tb;direction:ltr;text-anchor:start;fill:#c73b00;fill-opacity:0.769184;stroke-width:1;stroke-linecap:round;stroke-linejoin:round;stroke-dasharray:1, 3;stroke-opacity:0.972549;paint-order:stroke fill markers"
     x="-65.799995"
     y="-201.98947"
     id="text2"><tspan
       id="tspan2"
       style="stroke-width:1"
       x="-65.799995"
       y="-201.98947" /></text><path
     fill="currentColor"
     d="M 17.19706,8.17153 C 11.41944,13.19752 -0.0947,10.25455 5.9e-4,5.40518 0.09719,0.49076 11.26061,-2.41767 17.21537,2.65703 13.72539,0.56778 7.37793,0.86243 4.4031,2.90906 L 5.24306,6.533 6.28025,2.80773 H 7.06959 L 8.10907,6.53295 8.96998,2.80773 H 9.8305 L 8.50824,7.6633 H 7.74295 L 6.6813,3.84947 5.60675,7.6633 H 4.84357 L 3.73622,3.45382 C 3.16972,4.01078 2.82481,4.66452 2.78647,5.40659 2.61032,8.81645 11.2716,11.37428 17.19697,8.17153 M 21.81769,6.78559 V 3.17452 h -0.99557 v 4.43429 h 3.20792 V 6.78559 Z M 18.39528,5.9436 h 1.00429 C 19.34147,6.59532 18.93699,6.83558 18.48661,6.88576 17.56512,6.98844 17.08705,6.3194 17.08273,5.4104 17.06203,4.89093 17.237,4.32087 17.6924,4.04884 18.21993,3.73373 19.08999,3.83595 19.27594,4.63082 H 20.2294 C 19.9232,2.36153 16.06826,2.48793 16.08704,5.4088 c 0.0932,2.58152 2.78368,2.74443 3.47741,1.70026 l 0.10146,0.50312 h 0.63365 V 5.21393 H 18.39523 Z M 13.35142,3.25168 v 1.48967 c 0.63632,-0.78923 2.26126,-0.4883 2.26126,1.2093 -0.0221,0.64722 -0.19407,0.99785 -0.37622,1.28109 -0.30207,0.46952 -1.32189,0.85405 -1.91537,0.13199 V 7.6641 H 12.71988 V 3.25168 Z m -0.0242,2.93936 c 0,0.74474 0.44127,1.00898 0.81918,1.00898 0.26133,0 0.46511,-0.10949 0.60544,-0.32562 0.13188,-0.20285 0.20159,-0.49319 0.20159,-0.83961 -0.0151,-0.46539 -0.0616,-0.79505 -0.34647,-0.99466 -0.28527,-0.21322 -0.7523,-0.17488 -0.96402,0.0425 -0.19736,0.20262 -0.33088,0.56589 -0.31572,1.10844 m -0.99771,0.0706 h -2.30566 c -0.005,1.12195 1.16568,1.10525 1.51379,0.62408 0.0589,-0.0813 0.11142,-0.17187 0.12151,-0.30675 h 0.63412 c -0.0554,0.27404 -0.13864,0.45394 -0.26973,0.63669 -0.33041,0.46056 -0.90235,0.6098 -1.51562,0.5097 C 9.89201,7.62486 9.36677,7.06504 9.35532,6.12885 c -0.0884,-1.36169 1.19052,-2.26451 2.34481,-1.5628 0.38025,0.2312 0.63219,0.77769 0.62938,1.69562 M 11.676,5.74362 c -0.011,-1.14575 -1.569,-1.1144 -1.6515,0 z"
     id="path1"
     style="fill:#ffffff;fill-opacity:1;stroke-width:0.0469336" /></svg>
