<?xml version="1.0" encoding="UTF-8" standalone="no"?>
<!-- Created with Inkscape (http://www.inkscape.org/) -->

<svg
   width="26.879818mm"
   height="24.426342mm"
   viewBox="0 0 26.879818 24.426342"
   version="1.1"
   id="svg1"
   xml:space="preserve"
   xmlns:xlink="http://www.w3.org/1999/xlink"
   xmlns="http://www.w3.org/2000/svg"
   xmlns:svg="http://www.w3.org/2000/svg"><defs
     id="defs1"><linearGradient
       id="linearGradient24"><stop
         style="stop-color:#f9e4a3;stop-opacity:1;"
         offset="0"
         id="stop24" /><stop
         style="stop-color:#e9e4d3;stop-opacity:1;"
         offset="0.21608873"
         id="stop26" /><stop
         style="stop-color:#f9e4a3;stop-opacity:1;"
         offset="0.38157895"
         id="stop27" /><stop
         style="stop-color:#f9e4a3;stop-opacity:1;"
         offset="0.48854685"
         id="stop31" /><stop
         style="stop-color:#ffffff;stop-opacity:1;"
         offset="0.56883341"
         id="stop30" /><stop
         style="stop-color:#f9e4a3;stop-opacity:1;"
         offset="0.61368102"
         id="stop28" /><stop
         style="stop-color:#dcbd5c;stop-opacity:1;"
         offset="0.79520744"
         id="stop29" /><stop
         style="stop-color:#f9e4a3;stop-opacity:1;"
         offset="1"
         id="stop25" /></linearGradient><linearGradient
       xlink:href="#linearGradient24"
       id="linearGradient35"
       gradientUnits="userSpaceOnUse"
       x1="-13.801792"
       y1="148.06564"
       x2="112.66289"
       y2="148.06564"
       gradientTransform="matrix(0.20859453,0,0,0.20859453,94.65808,-36.965143)" /><linearGradient
       xlink:href="#linearGradient24"
       id="linearGradient36"
       gradientUnits="userSpaceOnUse"
       x1="-13.801792"
       y1="148.06564"
       x2="112.66289"
       y2="148.06564"
       gradientTransform="matrix(0.20859453,0,0,0.20859453,94.65808,-36.965143)" /><linearGradient
       xlink:href="#linearGradient24"
       id="linearGradient37"
       gradientUnits="userSpaceOnUse"
       x1="-13.801792"
       y1="148.06564"
       x2="112.66289"
       y2="148.06564"
       gradientTransform="matrix(0.20859453,0,0,0.20859453,94.65808,-36.965143)" /></defs><g
     id="layer1"
     transform="translate(-93.932115,16.808868)"><g
       id="g44"
       transform="translate(2.4029937,1.4837714)"><path
         id="path1"
         style="fill:url(#linearGradient35);fill-opacity:1;stroke:#24211e;stroke-width:0.5;stroke-linecap:round;stroke-linejoin:round;stroke-dasharray:none;stroke-opacity:1;paint-order:fill markers stroke"
         d="m 104.96914,-18.042624 c -0.39292,0.01 -0.77104,0.151862 -1.07353,0.402827 -0.0508,0.03114 -0.10427,0.05889 -0.15015,0.09583 -3.41579,2.750312 -5.72627,5.426115 -7.73392,8.7657181 -1.95115,3.2456385 -2.85426,6.9361515 -4.02288,10.4961365 -0.0821,0.25004 -0.20557,0.498102 -0.20933,0.761242 -0.003,0.242368 0.0319,0.509048 0.17268,0.706377 0.34379,0.481911 0.81902,0.760604 1.49392,0.960231 3.52488,1.208023 7.53931,1.737966 11.38038,1.737966 3.84106,0 7.83234,-0.5586 11.66603,-1.737966 1.09719,-0.36198 1.66657,-0.746178 1.6666,-1.666608 -4.1e-4,-0.224621 -0.0461,-0.446849 -0.13452,-0.653339 -6.3e-4,-0.0019 -6.3e-4,-0.0036 -0.001,-0.0054 -1.14308,-3.909381 -2.63216,-7.913649 -4.34938,-10.9736655 -1.71723,-3.0600201 -5.05072,-6.7428271 -7.48491,-8.3944761 -0.0161,-0.01095 -0.0355,-0.01863 -0.0522,-0.02911 -0.31813,-0.29445 -0.73418,-0.460416 -1.16763,-0.465778 z" /><path
         id="path3"
         style="fill:url(#linearGradient36);fill-opacity:1;stroke:none;stroke-width:1.66875;stroke-linecap:round;stroke-linejoin:round;stroke-opacity:1;paint-order:fill markers stroke"
         d="M 105.27247,0.18958062 V 1.5911216 l 0.0716,0.07567 h 0.59761 v 0.68611 h -0.71963 v 0.43344 h 1.21215 v -1.582418 h -0.61033 V 0.69039362 l 0.60612,-0.01681 v -0.483996 z m -3.06869,0.0084 0.001,2.13227598 h -0.5298 V 0.20240062 l -0.4895,0.003 0.001,2.58911098 h 1.49985 V 0.20238462 Z m 1.00141,0.01929 V 2.8362366 h 0.52377 v -1.327376 l 0.0925,-6.26e-4 0.56818,1.321989 h 0.38095 V 0.21729062 h -0.51784 V 1.1399006 h -0.10704 l -0.43452,-0.92260998 z m -3.81225,0.0017 V 2.7652846 h 0.42503 v -0.420936 h 0.15156 l 0.3872,0.500919 h 0.2904 l 0.11361,-0.0968 -0.3956,-0.509327 0.004,-0.193599 h 0.20621 l 0.10941,-0.101004 V 0.21896862 Z m 9.3518,0.0084 -0.0168,2.57994698 h 0.55978 V 0.22737062 Z m -0.69441,0.02102 -0.43776,1.46470898 -0.34936,-1.46039798 h -0.53865 l 0.64806,2.54243598 h 0.50448 l 0.68244,-2.54674698 z m 1.65819,0.0085 V 2.8326326 h 1.35099 l 0.13474,-0.109518 v -1.485621 h -0.71554 v 0.433441 l 0.16838,0.09259 v 0.601922 h -0.36198 V 0.69452962 h 0.2862 l 0.13043,0.214619 0.40832,-0.06306 0.008,-0.589203 z m -12.19346,0.0021 0.0357,2.47603198 h 1.2738 v -1.142833 l -0.16665,-0.16665 0.14283,-0.226152 V 0.25897362 Z m 14.08849,0.01779 V 2.8124246 c 0.004,0.0463 0.5297,0.03568 0.5297,0.03568 v -0.684492 h 0.30958 v 0.684492 h 0.4702 V 0.27678062 Z m -13.61635,0.42622 h 0.34515 V 1.1911986 h -0.32834 z m 1.88133,0 h 0.32823 V 1.6415646 h -0.32823 z m 12.25157,0.04635 h 0.31141 V 1.6499706 H 112.1201 Z M 97.9872,1.7509736 h 0.34515 v 0.622943 h -0.32834 z" /><path
         id="path12"
         style="fill:url(#linearGradient37);fill-opacity:1;stroke:none;stroke-width:1.66875;stroke-linecap:round;stroke-linejoin:round;stroke-opacity:1;paint-order:fill markers stroke"
         d="m 105.24078,-13.085492 c -3.80932,0 -3.26369,4.0453011 -3.26369,4.0453011 0,0 -0.42959,-0.01206 -0.43775,0.210416 -0.0104,0.282078 0.46718,0.20621 0.46718,0.20621 v 7.63463252 h 4.27609 c 0.0421,0 0,-0.92584502 0,-0.92584502 h -2.18855 l 0.0129,-0.367794 h 3.30335 v -1.279625 h -1.08926 c 0,0 -0.40175,-5.8e-5 -0.40175,-0.520862 0,-0.520805 0.46427,-0.472678 0.46427,-0.472678 h 0.99322 v -0.483995 c 0,0 1e-5,-0.0043 -0.15781,-0.0064 -0.15783,-0.0021 -0.42924,-0.115751 -0.42924,-0.46718 0,-0.35143 0.29878,-0.526036 0.41242,-0.526036 0.11364,0 0.20206,-0.0064 0.20416,0.189287 0.002,0.195705 -0.099,0.16417 -0.099,0.16417 0,0 -0.17463,-0.0042 -0.17463,0.151559 -0.004,0.136781 0.21882,0.122023 0.21882,0.122023 h 1.22239 v -3.1615675 c 0,0 0.40768,0.05357 0.40768,-0.220223 0,-0.273799 -0.41965,-0.279725 -0.41965,-0.279725 0,0 0.47616,-3.9997591 -3.32124,-4.0116701 z m -0.0495,0.23747 c 0.24352,-0.0015 1.02294,0.150042 1.03159,0.262479 0.009,0.116064 -0.13388,0.107149 -0.13388,0.107149 0,0 -0.44638,-0.01191 -0.5684,0.02975 -0.12202,0.04167 -0.24114,0.16665 -0.24114,0.16665 l -0.11598,-0.003 -0.35421,-0.33621 h -0.14876 v -0.142832 c 0,0 0.29462,-0.07152 0.5089,-0.08343 0.007,-4.17e-4 0.014,-4.17e-4 0.0219,-6.26e-4 z m -0.97198,0.349146 c 0.009,6.26e-4 0.0188,0.0019 0.0294,0.0043 0.17008,0.03779 0.0395,0.202652 0.19564,0.280051 0.1561,0.07739 0.20835,-0.126302 0.34139,-0.01379 0.13303,0.112503 -0.0591,0.197833 0.0431,0.338905 0.10224,0.141068 0.24309,-0.01496 0.30861,0.146492 0.0655,0.161442 -0.1443,0.147612 -0.11933,0.32004 0.025,0.172431 0.22226,0.09976 0.20524,0.273151 -0.017,0.173396 -0.19638,0.0637 -0.25439,0.227985 -0.058,0.164283 0.1504,0.191555 0.0548,0.337181 -0.0957,0.145626 -0.20343,-0.03486 -0.33115,0.08365 -0.12771,0.118507 0.0441,0.239532 -0.10822,0.324029 -0.15237,0.0845 -0.16396,-0.125453 -0.33212,-0.07987 -0.16816,0.04558 -0.0722,0.232706 -0.24641,0.236715 -0.17419,0.004 -0.0869,-0.187391 -0.25699,-0.225182 -0.17008,-0.03779 -0.17203,0.17247 -0.32812,0.09507 -0.15609,-0.07739 0.0101,-0.206137 -0.12289,-0.31864 -0.13303,-0.112502 -0.23256,0.07273 -0.33481,-0.06834 -0.10224,-0.141073 0.10487,-0.177896 0.0394,-0.339338 -0.0655,-0.161441 -0.23977,-0.0437 -0.26474,-0.216126 -0.025,-0.172431 0.1755,-0.10881 0.19252,-0.282206 0.017,-0.173396 -0.1919,-0.149936 -0.13388,-0.31422 0.058,-0.164285 0.20585,-0.01487 0.3015,-0.160506 0.0956,-0.145626 -0.10023,-0.222015 0.0275,-0.340522 0.12771,-0.118502 0.18923,0.08256 0.3416,-0.0019 0.15236,-0.0845 0.0144,-0.2432 0.1826,-0.28878 0.16816,-0.04558 0.12915,0.161068 0.30333,0.157055 0.1633,-0.0038 0.13101,-0.18381 0.26647,-0.175165 z m 1.74885,0.19058 c 0.009,4.17e-4 0.0196,0.0024 0.0316,0.0059 0.0962,0.02816 0.0452,0.09032 0.12331,0.153177 0.0782,0.06286 0.12788,-4.17e-4 0.17603,0.08753 0.0481,0.08798 -0.0319,0.09583 -0.0211,0.195539 0.0108,0.09971 0.0908,0.09012 0.0626,0.186375 -0.0282,0.09626 -0.0903,0.04516 -0.15317,0.123317 -0.0629,0.07815 3.3e-4,0.127989 -0.0876,0.176137 -0.088,0.04815 -0.0958,-0.03206 -0.19554,-0.02124 -0.0997,0.0108 -0.0901,0.09079 -0.18638,0.06263 -0.0962,-0.02817 -0.0452,-0.09032 -0.12331,-0.153175 -0.0781,-0.06286 -0.12788,4.17e-4 -0.17603,-0.08764 -0.0482,-0.08798 0.0319,-0.09572 0.0211,-0.19543 -0.0108,-0.09971 -0.0908,-0.09023 -0.0626,-0.186484 0.0282,-0.09626 0.0904,-0.04517 0.15328,-0.123317 0.0629,-0.07815 -4.6e-4,-0.127878 0.0875,-0.176028 0.088,-0.04815 0.0958,0.03193 0.19554,0.02113 0.0872,-0.0095 0.0908,-0.07187 0.15479,-0.06845 z m 0.81126,0.203839 c 0.0138,-4.17e-4 0.023,4.17e-4 0.023,4.17e-4 h 0.45037 l 0.40606,0.406169 v 0.189395 h -0.91539 c -0.0884,0 -0.0968,-0.128383 -0.0968,-0.128383 v -0.334594 c 0,0 -0.002,0.0031 0.002,-0.04948 0.006,-0.07107 0.0892,-0.08227 0.13064,-0.08343 z m -2.79295,0.105206 c -0.13987,0 -0.29762,0.06392 -0.29762,0.06392 0,0 -0.0123,0.06291 0.0333,0.124287 0.0456,0.06138 0.14897,0.121267 0.25537,0.121267 0.10639,0 0.22462,-0.07549 0.27466,-0.134633 0.05,-0.05915 0.0318,-0.101974 0.0318,-0.101974 0,0 -0.15764,-0.07287 -0.29752,-0.07287 z m 1.87357,0.06349 a 0.12626205,0.12626205 0 0 0 -0.12633,0.126336 0.12626205,0.12626205 0 0 0 0.12633,0.126227 0.12626205,0.12626205 0 0 0 0.12623,-0.126227 0.12626205,0.12626205 0 0 0 -0.12623,-0.126336 z m -2.42493,0.161584 c -0.001,-10e-6 -0.002,1.08e-4 -0.002,1.08e-4 0,0 -0.11762,0.127904 -0.1604,0.261077 -0.0428,0.133171 -0.0301,0.302903 -0.0301,0.302903 0,0 0.056,0.03087 0.12838,0.0063 0.0724,-0.02462 0.16106,-0.104702 0.1936,-0.205996 0.0325,-0.101297 -0.003,-0.23707 -0.0442,-0.302794 -0.0359,-0.05752 -0.0758,-0.06147 -0.0853,-0.06155 z m 1.11513,0.0373 c 0,0 -0.0637,0.0067 -0.10898,0.06834 -0.0453,0.0616 -0.0721,0.17814 -0.0409,0.279834 0.0313,0.101696 0.13831,0.192476 0.20956,0.222919 0.0712,0.03041 0.10671,4.17e-4 0.10671,4.17e-4 0,0 0.0233,-0.172114 -0.0178,-0.305812 -0.0411,-0.133695 -0.14864,-0.265712 -0.14864,-0.265712 z m -0.58015,0.320904 a 0.13987317,0.13987317 0 0 0 -0.13992,0.139917 0.13987317,0.13987317 0 0 0 0.13992,0.139808 0.13987317,0.13987317 0 0 0 0.13981,-0.139808 0.13987317,0.13987317 0 0 0 -0.13981,-0.139917 z m 3.29732,0.17247 h 0.64396 c 0,0 0.15991,0.229404 0.20621,0.450364 0.0463,0.220958 0.0421,0.340954 0.0421,0.340954 h -0.25677 c 0,0 -0.082,-0.197827 -0.27563,-0.414577 -0.1936,-0.216749 -0.36413,-0.248357 -0.36413,-0.248357 z m -1.31466,0.03676 c 0.16458,-0.01289 0.12839,0.206605 0.32705,0.208365 0.21191,0.0019 0.16097,-0.248765 0.36628,-0.196294 0.20531,0.05248 0.0403,0.247882 0.22712,0.347961 0.18679,0.100096 0.25803,-0.14543 0.41544,-0.0036 0.15741,0.141878 -0.0795,0.238182 0.0394,0.413606 0.11888,0.175411 0.29618,-0.0088 0.36962,0.189934 0.0735,0.198778 -0.18101,0.173922 -0.15727,0.3845021 0.0237,0.21057 0.26622,0.12974 0.23887,0.339876 -0.0273,0.210138 -0.24104,0.06984 -0.31788,0.267328 -0.045,0.115689 0.0221,0.177856 0.0617,0.244262 h -1.08301 c -0.002,-0.0042 -0.003,-0.0083 -0.006,-0.01262 -0.0447,-0.08152 -0.1594,-0.170757 -0.28759,-0.188425 -0.0801,-0.01103 -0.17078,0.01258 -0.24459,0.04732 -0.0443,0.02082 -0.0826,0.04569 -0.10887,0.06931 -0.0363,0.03259 -0.0496,0.06274 -0.0542,0.0844 h -0.74863 c 0.0365,-0.07477 0.12605,-0.135695 0.0784,-0.264742 -0.0735,-0.198778 -0.28962,-0.06214 -0.31336,-0.272721 -0.0237,-0.210565 0.21735,-0.125644 0.24469,-0.335778 0.0274,-0.2101411 -0.22753,-0.1897071 -0.15069,-0.3871981 0.0768,-0.197512 0.25088,-0.01022 0.37275,-0.183573 0.12187,-0.17336 -0.11336,-0.273796 0.0465,-0.41296 0.15981,-0.139145 0.22685,0.10775 0.41533,0.01089 0.17669,-0.09081 0.0459,-0.270724 0.19866,-0.333192 0.0102,-0.0042 0.0216,-0.0078 0.0345,-0.01089 0.0129,-0.0031 0.0247,-0.005 0.0357,-0.0058 z m -2.44596,0.213217 c -0.0402,-4.17e-4 -0.0775,0.0041 -0.10542,0.01218 -0.0745,0.02141 -0.083,0.06705 -0.083,0.06705 0,0 0.0908,0.148275 0.20708,0.225937 0.11633,0.07766 0.28296,0.111997 0.28296,0.111997 0,0 0.0452,-0.04545 0.0414,-0.121807 -0.004,-0.07635 -0.0566,-0.183572 -0.14509,-0.242646 -0.0553,-0.03692 -0.13085,-0.05191 -0.19791,-0.05271 z m 0.91366,0.02468 c -0.0446,-9e-5 -0.0914,0.0079 -0.13399,0.02663 -0.0974,0.04281 -0.17535,0.159527 -0.19737,0.233805 -0.022,0.07428 0.012,0.106069 0.012,0.106069 0,0 0.17377,0.0033 0.30182,-0.05293 0.12806,-0.05627 0.24664,-0.178292 0.24664,-0.178292 v -1.07e-4 c 0,0 -0.014,-0.0625 -0.0804,-0.100357 -0.0374,-0.02129 -0.0913,-0.0347 -0.14865,-0.03482 z m -1.98136,0.20427 v 1.09e-4 c 0.0466,-0.0021 0.0771,0.03247 0.20923,0.318533 0.14099,0.305132 0.75762,0.6292771 0.80813,0.6324271 0.0505,0.0031 0.14099,0.05357 0.14099,0.150374 0,0.0968 -0.13894,0.07578 -0.13894,0.07578 h -1.02265 c 0,0 -0.0359,7.1e-5 -0.10952,-0.0063 -0.0736,-0.0063 -0.0505,-0.260931 -0.0378,-0.5807941 0.0126,-0.319865 0.0863,-0.591418 0.14099,-0.589311 0.003,-4.17e-4 0.006,-6.26e-4 0.01,-8.35e-4 z m 3.81818,0.166651 c 0,0 -0.21118,0.004 -0.36424,0.07826 -0.15306,0.07426 -0.2918,0.227985 -0.2918,0.227985 0,0 0.0201,0.07528 0.10251,0.11825 0.0825,0.04298 0.22734,0.05368 0.34376,-0.0028 0.11642,-0.05649 0.20571,-0.201915 0.22906,-0.2932 0.0233,-0.09129 -0.0193,-0.12849 -0.0193,-0.12849 z m 0.39194,0.06608 c 0,0 -0.0661,0.04125 -0.0829,0.132693 -0.0168,0.09144 0.0156,0.233232 0.10381,0.327911 0.0882,0.09468 0.25362,0.1370921 0.34774,0.1325871 0.0941,-0.0046 0.11696,-0.05616 0.11696,-0.05616 0,0 -0.0659,-0.2007371 -0.18185,-0.3252161 -0.11597,-0.124474 -0.30376,-0.211815 -0.30376,-0.211815 z m -1.19932,0.5439291 c -0.0215,-6.26e-4 -0.0356,0.0049 -0.0407,0.0073 v 1.08e-4 c -0.001,6.26e-4 -0.002,10e-4 -0.002,10e-4 0,0 -0.0608,0.202376 -0.0369,0.370812 0.0239,0.168436 0.12784,0.347423 0.12784,0.347423 0,0 0.0777,0.004 0.1438,-0.06133 0.0661,-0.06536 0.12069,-0.200009 0.10251,-0.328126 -0.0182,-0.128125 -0.12934,-0.257718 -0.20912,-0.30786 -0.0349,-0.02195 -0.0638,-0.02878 -0.0853,-0.02943 z m 0.79908,0.09842 a 0.17012438,0.17012438 0 0 0 -0.0642,0.01681 0.17012438,0.17012438 0 0 0 -0.0788,0.227339 0.17012438,0.17012438 0 0 0 0.22734,0.07869 0.17012438,0.17012438 0 0 0 0.0788,-0.227124 0.17012438,0.17012438 0 0 0 -0.16309,-0.09572 z m 0.84715,0.226152 c -0.0522,-0.0035 -0.11825,0.01053 -0.18109,0.04085 -0.0489,0.02359 -0.0958,0.05713 -0.13248,0.100249 -0.0839,0.09856 -0.10719,0.267606 -0.0918,0.360572 0.0154,0.09294 0.0693,0.109733 0.0693,0.109733 0,0 0.192,-0.08862 0.30225,-0.218175 0.11026,-0.129562 0.17517,-0.325969 0.17517,-0.325969 v -1.08e-4 c 0,0 -0.0485,-0.06098 -0.14132,-0.06715 z m -4.66867,0.212247 h 2.07902 v 0.423522 l -2.10856,0.0042 c 0,0 -0.18939,-0.0126 -0.18939,-0.218822 0,-0.206227 0.21893,-0.208906 0.21893,-0.208906 z m 2.42946,1.07072 h 2.86 v 0.3541037 l -0.30657,0.0059 -0.12504,0.258922 h 0.24114 v 0.366069 l -2.14877,0.0089 0.006,-0.351194 1.46417,-0.003 0.11006,-0.276707 -2.35994,-0.003 c 0,0 0.006,-0.02972 0.009,-0.2023297 0.003,-0.172602 0.24997,-0.157702 0.24997,-0.157702 z m 1.53154,4.1633337 c -0.0248,2.08e-4 -0.12385,0.0096 -0.12385,0.138517 0,0.147314 0.0997,0.166648 0.0997,0.166648 l 1.00733,0.0015 v -0.306459 h -0.97758 c 0,0 -0.002,-1.5e-4 -0.006,-1.09e-4 z" /><path
         id="path23"
         style="fill:#24211e;fill-opacity:1;stroke:none;stroke-width:0.1;stroke-linecap:round;stroke-linejoin:round;stroke-dasharray:none;stroke-opacity:1;paint-order:fill markers stroke"
         d="M 105.27247,0.18958062 V 1.5911216 l 0.0716,0.07567 h 0.59761 v 0.68611 h -0.71963 v 0.43344 h 1.21215 v -1.582418 h -0.61033 V 0.69039362 l 0.60612,-0.01681 v -0.483996 z m -3.06869,0.0084 0.001,2.13227598 h -0.5298 V 0.20240062 l -0.4895,0.003 0.001,2.58911098 h 1.49985 V 0.20238462 Z m 1.00141,0.01929 V 2.8362366 h 0.52377 v -1.327376 l 0.0925,-6.26e-4 0.56818,1.321989 h 0.38095 V 0.21729062 h -0.51784 V 1.1399006 h -0.10704 l -0.43452,-0.92260998 z m -3.81225,0.0017 V 2.7652846 h 0.42503 v -0.420936 h 0.15156 l 0.3872,0.500919 h 0.2904 l 0.11361,-0.0968 -0.3956,-0.509327 0.004,-0.193599 h 0.20621 l 0.10941,-0.101004 V 0.21896862 Z m 9.3518,0.0084 -0.0168,2.57994698 h 0.55978 V 0.22737062 Z m -0.69441,0.02102 -0.43776,1.46470898 -0.34936,-1.46039798 h -0.53865 l 0.64806,2.54243598 h 0.50448 l 0.68244,-2.54674698 z m 1.65819,0.0085 V 2.8326326 h 1.35099 l 0.13474,-0.109518 v -1.485621 h -0.71554 v 0.433441 l 0.16838,0.09259 v 0.601922 h -0.36198 V 0.69452962 h 0.2862 l 0.13043,0.214619 0.40832,-0.06306 0.008,-0.589203 z m -12.19346,0.0021 0.0357,2.47603198 h 1.2738 v -1.142833 l -0.16665,-0.16665 0.14283,-0.226152 V 0.25897362 Z m 14.08849,0.01779 V 2.8124246 c 0.004,0.0463 0.5297,0.03568 0.5297,0.03568 v -0.684492 h 0.30958 v 0.684492 h 0.4702 V 0.27678062 Z m -13.61635,0.42622 h 0.34515 V 1.1911986 h -0.32834 z m 1.88133,0 h 0.32823 V 1.6415646 h -0.32823 z m 12.25157,0.04635 h 0.31141 V 1.6499706 H 112.1201 Z M 97.9872,1.7509736 h 0.34515 v 0.622943 h -0.32834 z" /><path
         id="path24"
         style="fill:#24211e;fill-opacity:1;stroke-width:1.66875;stroke-linecap:round;stroke-linejoin:round;paint-order:fill markers stroke"
         d="m 105.24078,-13.085492 c -3.80932,0 -3.26369,4.0453011 -3.26369,4.0453011 0,0 -0.42959,-0.01206 -0.43775,0.210416 -0.0104,0.282078 0.46718,0.20621 0.46718,0.20621 v 7.63463252 h 4.27609 c 0.0421,0 0,-0.92584502 0,-0.92584502 h -2.18855 l 0.0129,-0.367794 h 3.30335 v -1.279625 h -1.08926 c 0,0 -0.40175,-5.8e-5 -0.40175,-0.520862 0,-0.520805 0.46427,-0.472678 0.46427,-0.472678 h 0.99322 v -0.483995 c 0,0 1e-5,-0.0043 -0.15781,-0.0064 -0.15783,-0.0021 -0.42924,-0.115751 -0.42924,-0.46718 0,-0.35143 0.29878,-0.526036 0.41242,-0.526036 0.11364,0 0.20206,-0.0064 0.20416,0.189287 0.002,0.195705 -0.099,0.16417 -0.099,0.16417 0,0 -0.17463,-0.0042 -0.17463,0.151559 -0.004,0.136781 0.21882,0.122023 0.21882,0.122023 h 1.22239 v -3.1615675 c 0,0 0.40768,0.05357 0.40768,-0.220223 0,-0.273799 -0.41965,-0.279725 -0.41965,-0.279725 0,0 0.47616,-3.9997591 -3.32124,-4.0116701 z m -0.0495,0.23747 c 0.24352,-0.0015 1.02294,0.150042 1.03159,0.262479 0.009,0.116064 -0.13388,0.107149 -0.13388,0.107149 0,0 -0.44638,-0.01191 -0.5684,0.02975 -0.12202,0.04167 -0.24114,0.16665 -0.24114,0.16665 l -0.11598,-0.003 -0.35421,-0.33621 h -0.14876 v -0.142832 c 0,0 0.29462,-0.07152 0.5089,-0.08343 0.007,-4.17e-4 0.014,-4.17e-4 0.0219,-6.26e-4 z m -0.97198,0.349146 c 0.009,6.26e-4 0.0188,0.0019 0.0294,0.0043 0.17008,0.03779 0.0395,0.202652 0.19564,0.280051 0.1561,0.07739 0.20835,-0.126302 0.34139,-0.01379 0.13303,0.112503 -0.0591,0.197833 0.0431,0.338905 0.10224,0.141068 0.24309,-0.01496 0.30861,0.146492 0.0655,0.161442 -0.1443,0.147612 -0.11933,0.32004 0.025,0.172431 0.22226,0.09976 0.20524,0.273151 -0.017,0.173396 -0.19638,0.0637 -0.25439,0.227985 -0.058,0.164283 0.1504,0.191555 0.0548,0.337181 -0.0957,0.145626 -0.20343,-0.03486 -0.33115,0.08365 -0.12771,0.118507 0.0441,0.239532 -0.10822,0.324029 -0.15237,0.0845 -0.16396,-0.125453 -0.33212,-0.07987 -0.16816,0.04558 -0.0722,0.232706 -0.24641,0.236715 -0.17419,0.004 -0.0869,-0.187391 -0.25699,-0.225182 -0.17008,-0.03779 -0.17203,0.17247 -0.32812,0.09507 -0.15609,-0.07739 0.0101,-0.206137 -0.12289,-0.31864 -0.13303,-0.112502 -0.23256,0.07273 -0.33481,-0.06834 -0.10224,-0.141073 0.10487,-0.177896 0.0394,-0.339338 -0.0655,-0.161441 -0.23977,-0.0437 -0.26474,-0.216126 -0.025,-0.172431 0.1755,-0.10881 0.19252,-0.282206 0.017,-0.173396 -0.1919,-0.149936 -0.13388,-0.31422 0.058,-0.164285 0.20585,-0.01487 0.3015,-0.160506 0.0956,-0.145626 -0.10023,-0.222015 0.0275,-0.340522 0.12771,-0.118502 0.18923,0.08256 0.3416,-0.0019 0.15236,-0.0845 0.0144,-0.2432 0.1826,-0.28878 0.16816,-0.04558 0.12915,0.161068 0.30333,0.157055 0.1633,-0.0038 0.13101,-0.18381 0.26647,-0.175165 z m 1.74885,0.19058 c 0.009,4.17e-4 0.0196,0.0024 0.0316,0.0059 0.0962,0.02816 0.0452,0.09032 0.12331,0.153177 0.0782,0.06286 0.12788,-4.17e-4 0.17603,0.08753 0.0481,0.08798 -0.0319,0.09583 -0.0211,0.195539 0.0108,0.09971 0.0908,0.09012 0.0626,0.186375 -0.0282,0.09626 -0.0903,0.04516 -0.15317,0.123317 -0.0629,0.07815 3.3e-4,0.127989 -0.0876,0.176137 -0.088,0.04815 -0.0958,-0.03206 -0.19554,-0.02124 -0.0997,0.0108 -0.0901,0.09079 -0.18638,0.06263 -0.0962,-0.02817 -0.0452,-0.09032 -0.12331,-0.153175 -0.0781,-0.06286 -0.12788,4.17e-4 -0.17603,-0.08764 -0.0482,-0.08798 0.0319,-0.09572 0.0211,-0.19543 -0.0108,-0.09971 -0.0908,-0.09023 -0.0626,-0.186484 0.0282,-0.09626 0.0904,-0.04517 0.15328,-0.123317 0.0629,-0.07815 -4.6e-4,-0.127878 0.0875,-0.176028 0.088,-0.04815 0.0958,0.03193 0.19554,0.02113 0.0872,-0.0095 0.0908,-0.07187 0.15479,-0.06845 z m 0.81126,0.203839 c 0.0138,-4.17e-4 0.023,4.17e-4 0.023,4.17e-4 h 0.45037 l 0.40606,0.406169 v 0.189395 h -0.91539 c -0.0884,0 -0.0968,-0.128383 -0.0968,-0.128383 v -0.334594 c 0,0 -0.002,0.0031 0.002,-0.04948 0.006,-0.07107 0.0892,-0.08227 0.13064,-0.08343 z m -2.79295,0.105206 c -0.13987,0 -0.29762,0.06392 -0.29762,0.06392 0,0 -0.0123,0.06291 0.0333,0.124287 0.0456,0.06138 0.14897,0.121267 0.25537,0.121267 0.10639,0 0.22462,-0.07549 0.27466,-0.134633 0.05,-0.05915 0.0318,-0.101974 0.0318,-0.101974 0,0 -0.15764,-0.07287 -0.29752,-0.07287 z m 1.87357,0.06349 a 0.12626205,0.12626205 0 0 0 -0.12633,0.126336 0.12626205,0.12626205 0 0 0 0.12633,0.126227 0.12626205,0.12626205 0 0 0 0.12623,-0.126227 0.12626205,0.12626205 0 0 0 -0.12623,-0.126336 z m -2.42493,0.161584 c -0.001,-10e-6 -0.002,1.08e-4 -0.002,1.08e-4 0,0 -0.11762,0.127904 -0.1604,0.261077 -0.0428,0.133171 -0.0301,0.302903 -0.0301,0.302903 0,0 0.056,0.03087 0.12838,0.0063 0.0724,-0.02462 0.16106,-0.104702 0.1936,-0.205996 0.0325,-0.101297 -0.003,-0.23707 -0.0442,-0.302794 -0.0359,-0.05752 -0.0758,-0.06147 -0.0853,-0.06155 z m 1.11513,0.0373 c 0,0 -0.0637,0.0067 -0.10898,0.06834 -0.0453,0.0616 -0.0721,0.17814 -0.0409,0.279834 0.0313,0.101696 0.13831,0.192476 0.20956,0.222919 0.0712,0.03041 0.10671,4.17e-4 0.10671,4.17e-4 0,0 0.0233,-0.172114 -0.0178,-0.305812 -0.0411,-0.133695 -0.14864,-0.265712 -0.14864,-0.265712 z m -0.58015,0.320904 a 0.13987317,0.13987317 0 0 0 -0.13992,0.139917 0.13987317,0.13987317 0 0 0 0.13992,0.139808 0.13987317,0.13987317 0 0 0 0.13981,-0.139808 0.13987317,0.13987317 0 0 0 -0.13981,-0.139917 z m 3.29732,0.17247 h 0.64396 c 0,0 0.15991,0.229404 0.20621,0.450364 0.0463,0.220958 0.0421,0.340954 0.0421,0.340954 h -0.25677 c 0,0 -0.082,-0.197827 -0.27563,-0.414577 -0.1936,-0.216749 -0.36413,-0.248357 -0.36413,-0.248357 z m -1.31466,0.03676 c 0.16458,-0.01289 0.12839,0.206605 0.32705,0.208365 0.21191,0.0019 0.16097,-0.248765 0.36628,-0.196294 0.20531,0.05248 0.0403,0.247882 0.22712,0.347961 0.18679,0.100096 0.25803,-0.14543 0.41544,-0.0036 0.15741,0.141878 -0.0795,0.238182 0.0394,0.413606 0.11888,0.175411 0.29618,-0.0088 0.36962,0.189934 0.0735,0.198778 -0.18101,0.173922 -0.15727,0.3845021 0.0237,0.21057 0.26622,0.12974 0.23887,0.339876 -0.0273,0.210138 -0.24104,0.06984 -0.31788,0.267328 -0.045,0.115689 0.0221,0.177856 0.0617,0.244262 h -1.08301 c -0.002,-0.0042 -0.003,-0.0083 -0.006,-0.01262 -0.0447,-0.08152 -0.1594,-0.170757 -0.28759,-0.188425 -0.0801,-0.01103 -0.17078,0.01258 -0.24459,0.04732 -0.0443,0.02082 -0.0826,0.04569 -0.10887,0.06931 -0.0363,0.03259 -0.0496,0.06274 -0.0542,0.0844 h -0.74863 c 0.0365,-0.07477 0.12605,-0.135695 0.0784,-0.264742 -0.0735,-0.198778 -0.28962,-0.06214 -0.31336,-0.272721 -0.0237,-0.210565 0.21735,-0.125644 0.24469,-0.335778 0.0274,-0.2101411 -0.22753,-0.1897071 -0.15069,-0.3871981 0.0768,-0.197512 0.25088,-0.01022 0.37275,-0.183573 0.12187,-0.17336 -0.11336,-0.273796 0.0465,-0.41296 0.15981,-0.139145 0.22685,0.10775 0.41533,0.01089 0.17669,-0.09081 0.0459,-0.270724 0.19866,-0.333192 0.0102,-0.0042 0.0216,-0.0078 0.0345,-0.01089 0.0129,-0.0031 0.0247,-0.005 0.0357,-0.0058 z m -2.44596,0.213217 c -0.0402,-4.17e-4 -0.0775,0.0041 -0.10542,0.01218 -0.0745,0.02141 -0.083,0.06705 -0.083,0.06705 0,0 0.0908,0.148275 0.20708,0.225937 0.11633,0.07766 0.28296,0.111997 0.28296,0.111997 0,0 0.0452,-0.04545 0.0414,-0.121807 -0.004,-0.07635 -0.0566,-0.183572 -0.14509,-0.242646 -0.0553,-0.03692 -0.13085,-0.05191 -0.19791,-0.05271 z m 0.91366,0.02468 c -0.0446,-9e-5 -0.0914,0.0079 -0.13399,0.02663 -0.0974,0.04281 -0.17535,0.159527 -0.19737,0.233805 -0.022,0.07428 0.012,0.106069 0.012,0.106069 0,0 0.17377,0.0033 0.30182,-0.05293 0.12806,-0.05627 0.24664,-0.178292 0.24664,-0.178292 v -1.07e-4 c 0,0 -0.014,-0.0625 -0.0804,-0.100357 -0.0374,-0.02129 -0.0913,-0.0347 -0.14865,-0.03482 z m -1.98136,0.20427 v 1.09e-4 c 0.0466,-0.0021 0.0771,0.03247 0.20923,0.318533 0.14099,0.305132 0.75762,0.6292771 0.80813,0.6324271 0.0505,0.0031 0.14099,0.05357 0.14099,0.150374 0,0.0968 -0.13894,0.07578 -0.13894,0.07578 h -1.02265 c 0,0 -0.0359,7.1e-5 -0.10952,-0.0063 -0.0736,-0.0063 -0.0505,-0.260931 -0.0378,-0.5807941 0.0126,-0.319865 0.0863,-0.591418 0.14099,-0.589311 0.003,-4.17e-4 0.006,-6.26e-4 0.01,-8.35e-4 z m 3.81818,0.166651 c 0,0 -0.21118,0.004 -0.36424,0.07826 -0.15306,0.07426 -0.2918,0.227985 -0.2918,0.227985 0,0 0.0201,0.07528 0.10251,0.11825 0.0825,0.04298 0.22734,0.05368 0.34376,-0.0028 0.11642,-0.05649 0.20571,-0.201915 0.22906,-0.2932 0.0233,-0.09129 -0.0193,-0.12849 -0.0193,-0.12849 z m 0.39194,0.06608 c 0,0 -0.0661,0.04125 -0.0829,0.132693 -0.0168,0.09144 0.0156,0.233232 0.10381,0.327911 0.0882,0.09468 0.25362,0.1370921 0.34774,0.1325871 0.0941,-0.0046 0.11696,-0.05616 0.11696,-0.05616 0,0 -0.0659,-0.2007371 -0.18185,-0.3252161 -0.11597,-0.124474 -0.30376,-0.211815 -0.30376,-0.211815 z m -1.19932,0.5439291 c -0.0215,-6.26e-4 -0.0356,0.0049 -0.0407,0.0073 v 1.08e-4 c -0.001,6.26e-4 -0.002,10e-4 -0.002,10e-4 0,0 -0.0608,0.202376 -0.0369,0.370812 0.0239,0.168436 0.12784,0.347423 0.12784,0.347423 0,0 0.0777,0.004 0.1438,-0.06133 0.0661,-0.06536 0.12069,-0.200009 0.10251,-0.328126 -0.0182,-0.128125 -0.12934,-0.257718 -0.20912,-0.30786 -0.0349,-0.02195 -0.0638,-0.02878 -0.0853,-0.02943 z m 0.79908,0.09842 a 0.17012438,0.17012438 0 0 0 -0.0642,0.01681 0.17012438,0.17012438 0 0 0 -0.0788,0.227339 0.17012438,0.17012438 0 0 0 0.22734,0.07869 0.17012438,0.17012438 0 0 0 0.0788,-0.227124 0.17012438,0.17012438 0 0 0 -0.16309,-0.09572 z m 0.84715,0.226152 c -0.0522,-0.0035 -0.11825,0.01053 -0.18109,0.04085 -0.0489,0.02359 -0.0958,0.05713 -0.13248,0.100249 -0.0839,0.09856 -0.10719,0.267606 -0.0918,0.360572 0.0154,0.09294 0.0693,0.109733 0.0693,0.109733 0,0 0.192,-0.08862 0.30225,-0.218175 0.11026,-0.129562 0.17517,-0.325969 0.17517,-0.325969 v -1.08e-4 c 0,0 -0.0485,-0.06098 -0.14132,-0.06715 z m -4.66867,0.212247 h 2.07902 v 0.423522 l -2.10856,0.0042 c 0,0 -0.18939,-0.0126 -0.18939,-0.218822 0,-0.206227 0.21893,-0.208906 0.21893,-0.208906 z m 2.42946,1.07072 h 2.86 v 0.3541037 l -0.30657,0.0059 -0.12504,0.258922 h 0.24114 v 0.366069 l -2.14877,0.0089 0.006,-0.351194 1.46417,-0.003 0.11006,-0.276707 -2.35994,-0.003 c 0,0 0.006,-0.02972 0.009,-0.2023297 0.003,-0.172602 0.24997,-0.157702 0.24997,-0.157702 z m 1.53154,4.1633337 c -0.0248,2.08e-4 -0.12385,0.0096 -0.12385,0.138517 0,0.147314 0.0997,0.166648 0.0997,0.166648 l 1.00733,0.0015 v -0.306459 h -0.97758 c 0,0 -0.002,-1.5e-4 -0.006,-1.09e-4 z" /></g></g></svg>
