<?xml version="1.0" encoding="UTF-8" standalone="no"?>
<!-- Created with Inkscape (http://www.inkscape.org/) -->

<svg
   width="210.00011mm"
   height="33.685463mm"
   viewBox="0 0 210.00011 33.685463"
   version="1.1"
   id="svg1"
   xml:space="preserve"
   inkscape:version="1.4 (e7c3feb100, 2024-10-09)"
   sodipodi:docname="banner.svg"
   xmlns:inkscape="http://www.inkscape.org/namespaces/inkscape"
   xmlns:sodipodi="http://sodipodi.sourceforge.net/DTD/sodipodi-0.dtd"
   xmlns:xlink="http://www.w3.org/1999/xlink"
   xmlns="http://www.w3.org/2000/svg"
   xmlns:svg="http://www.w3.org/2000/svg"><sodipodi:namedview
     id="namedview1"
     pagecolor="#505050"
     bordercolor="#ffffff"
     borderopacity="1"
     inkscape:showpageshadow="0"
     inkscape:pageopacity="0"
     inkscape:pagecheckerboard="1"
     inkscape:deskcolor="#505050"
     inkscape:document-units="mm"
     inkscape:zoom="1.5413826"
     inkscape:cx="404.50698"
     inkscape:cy="188.14278"
     inkscape:window-width="1920"
     inkscape:window-height="1128"
     inkscape:window-x="0"
     inkscape:window-y="0"
     inkscape:window-maximized="1"
     inkscape:current-layer="layer1"
     showgrid="false"><inkscape:grid
       id="grid33"
       units="mm"
       originx="-1.0728836e-06"
       originy="0"
       spacingx="0.99999998"
       spacingy="1"
       empcolor="#0099e5"
       empopacity="0.30196078"
       color="#0099e5"
       opacity="0.14901961"
       empspacing="5"
       enabled="true"
       visible="false" /></sodipodi:namedview><defs
     id="defs1"><pattern
       inkscape:collect="always"
       xlink:href="#pattern5-6"
       preserveAspectRatio="xMidYMid"
       id="pattern21"
       patternTransform="matrix(0.03275495,-0.03275495,0.03275495,0.03275495,343.7492,134.99692)"
       x="-6"
       y="-3" /><pattern
       inkscape:collect="always"
       xlink:href="#pattern5-6"
       preserveAspectRatio="xMidYMid"
       id="pattern20"
       patternTransform="matrix(-0.03275495,-0.03275495,0.03275495,-0.03275495,343.7492,134.99692)"
       x="0"
       y="0" /><pattern
       patternUnits="userSpaceOnUse"
       width="20"
       height="20"
       patternTransform="translate(525,250)"
       preserveAspectRatio="xMidYMid"
       style="fill:#1a1a19"
       id="pattern5-6"
       inkscape:label="Grid 1"
       inkscape:collect="always"
       inkscape:isstock="true"><path
         id="path1-2-7-2"
         style="display:inline;stroke-width:4.8561;stroke-linecap:square;paint-order:stroke markers fill;stop-color:#000000"
         d="m 10,10 v 5 l 5,5 h 5 V 15 L 15,10 Z M 0,20 v -5 l 5,-5 h 5 v 5 L 5,20 Z M 10,10 V 5 l 5,-5 h 5 v 5 l -5,5 z M 0,0 v 5 l 5,5 h 5 V 5 L 5,0 Z" /></pattern><linearGradient
       id="linearGradient5"
       inkscape:collect="always"><stop
         style="stop-color:#f2e2b1;stop-opacity:1;"
         offset="0.20310846"
         id="stop4" /><stop
         style="stop-color:#f2e2b1;stop-opacity:0.80000001;"
         offset="1"
         id="stop5" /></linearGradient><linearGradient
       id="linearGradient1"
       inkscape:collect="always"><stop
         style="stop-color:#f2e2b1;stop-opacity:1;"
         offset="0"
         id="stop1" /><stop
         style="stop-color:#f2e2b1;stop-opacity:1;"
         offset="1"
         id="stop2" /></linearGradient><linearGradient
       id="linearGradient24"><stop
         style="stop-color:#f9e4a3;stop-opacity:1;"
         offset="0"
         id="stop24" /><stop
         style="stop-color:#e9e4d3;stop-opacity:1;"
         offset="0.21608873"
         id="stop26" /><stop
         style="stop-color:#f9e4a3;stop-opacity:1;"
         offset="0.38157895"
         id="stop27" /><stop
         style="stop-color:#f9e4a3;stop-opacity:1;"
         offset="0.48854685"
         id="stop31" /><stop
         style="stop-color:#ffffff;stop-opacity:1;"
         offset="0.56883341"
         id="stop30" /><stop
         style="stop-color:#f9e4a3;stop-opacity:1;"
         offset="0.61368102"
         id="stop28" /><stop
         style="stop-color:#dcbd5c;stop-opacity:1;"
         offset="0.79520744"
         id="stop29" /><stop
         style="stop-color:#f9e4a3;stop-opacity:1;"
         offset="1"
         id="stop25" /></linearGradient><linearGradient
       xlink:href="#linearGradient24"
       id="linearGradient35"
       gradientUnits="userSpaceOnUse"
       x1="-13.801792"
       y1="148.06564"
       x2="112.66289"
       y2="148.06564"
       gradientTransform="matrix(0.20859453,0,0,0.20859453,3.128959,-18.672504)" /><linearGradient
       inkscape:collect="always"
       xlink:href="#linearGradient1"
       id="linearGradient2"
       x1="0"
       y1="20.559677"
       x2="210"
       y2="20.559677"
       gradientUnits="userSpaceOnUse"
       gradientTransform="matrix(1,0,0,0.82386364,1.0728836e-6,-0.09569701)" /><linearGradient
       inkscape:collect="always"
       xlink:href="#linearGradient5"
       id="linearGradient4"
       gradientUnits="userSpaceOnUse"
       gradientTransform="matrix(1,0,0,0.82386364,9.5402344e-5,-0.09558635)"
       x1="0"
       y1="20.559677"
       x2="210"
       y2="20.559677" /></defs><g
     inkscape:label="Layer 1"
     inkscape:groupmode="layer"
     id="layer1"><rect
       style="font-variation-settings:'wdth' 75, 'wght' 300;fill:url(#linearGradient2);stroke-width:0.297716;stroke-linecap:round;paint-order:stroke fill markers"
       id="rect1"
       width="210"
       height="33.685349"
       x="1.0728836e-06"
       y="0"
       inkscape:transform-center-x="10.22176"
       inkscape:transform-center-y="-103.35277" /><path
       id="path1-2"
       style="fill:#1a1a19;fill-opacity:1;stroke-width:0.432533"
       d="M 198.27162,1.1560055e-4 198.61527,1.0718848 a 10.380807,10.380807 0 0 0 -1.10846,1.1125936 L 196.34099,1.845481 c -0.26357,-0.085056 -0.49956,5.699e-4 -0.66715,0.252181 a 0.53417898,0.53417898 0 0 0 0.016,0.6506062 l 0.77463,0.991154 c -0.2589,0.4545018 -0.45451,0.9337717 -0.63665,1.4412557 l -1.24592,0.076998 c -0.26346,0.017089 -0.47047,0.1813392 -0.52503,0.4413167 -0.0549,0.2608712 0.04,0.4851293 0.26665,0.6144328 l 1.048,0.6769613 c -0.0795,0.5074596 -0.13911,1.0231565 -0.11317,1.5709635 l -1.1317,0.4935098 c -0.25332,0.1073802 -0.37529,0.3136525 -0.34726,0.5860108 0.0279,0.2719188 0.18968,0.4493092 0.46095,0.5131472 l 1.2082,0.252698 c 0.085,0.531284 0.24992,1.044179 0.43098,1.515153 l -0.88935,0.86558 c -0.19551,0.18318 -0.24078,0.432492 -0.13436,0.675928 0.10694,0.243788 0.34306,0.361913 0.60409,0.325045 l 1.23455,-0.187586 c 0.28209,0.459722 0.57023,0.889204 0.90589,1.282092 l -0.53743,1.115178 c -0.12819,0.237567 -0.0806,0.497537 0.10903,0.661458 0.21532,0.212216 0.46309,0.237697 0.70487,0.111105 l 1.07022,-0.589112 c 0.41185,0.334604 0.85963,0.624319 1.3131,0.873332 l -0.12764,1.236617 c -0.0236,0.267638 0.0921,0.499826 0.32659,0.597896 0.26622,0.115219 0.50412,0.04995 0.67696,-0.150895 l 0.81391,-0.909505 c 0.50582,0.161885 1.01911,0.302984 1.53685,0.381889 l 0.29714,1.20251 c 0.068,0.268247 0.25843,0.432407 0.51573,0.45682 0.28641,0.0114 0.4963,-0.13244 0.58446,-0.365869 l 0.46044,-1.168404 c 0.27444,-0.0078 0.53008,-0.0036 0.80202,-0.03152 v -5.17e-4 c 0.26246,-0.02701 0.50126,-0.08198 0.77153,-0.130224 l 0.69918,1.049031 c 0.13339,0.210664 0.36789,0.308721 0.63562,0.240296 0.24698,-0.07629 0.40976,-0.276455 0.41186,-0.551905 l 0.0558,-1.2392 c 0.43362,-0.163808 0.86063,-0.380274 1.27951,-0.612366 V 15.24725 c -1.13043,0.823787 -2.49415,1.368305 -4.01164,1.524455 -1.34114,0.138003 -2.62325,-0.04632 -3.77858,-0.47749 l 2.46497,-5.155758 c 0.32111,0.04874 0.53568,0.04656 0.70693,0.02894 1.16942,-0.120341 2.02388,-0.931556 2.35386,-2.2799646 L 210.0001,8.6543677 V 7.329384 l -2.39934,0.2470133 c -0.60489,-1.2217697 -1.60409,-1.8220537 -2.76365,-1.7027384 -0.17166,0.017674 -0.37128,0.058419 -0.68678,0.1617472 l -3.40289,-4.6431274 c 1.02413,-0.64543054 2.22416,-1.06450851 3.53518,-1.19941 2.14401,-0.22062002 4.143,0.37751927 5.71748,1.5420247 V 1.1560055e-4 Z m 1.38803,2.20761719945 3.42563,4.6715494 c -0.48657,0.6209834 -0.67467,1.2614817 -0.6072,1.9171957 0.0653,0.6350688 0.36708,1.1957527 0.98185,1.7234091 l -2.48253,5.187797 c -2.19194,-1.293274 -3.74383,-3.599712 -4.03025,-6.383073 h 5.2e-4 c -0.2885,-2.8035866 0.77782,-5.4099222 2.71198,-7.1168782 z m 5.59656,5.0839274 c 0.5788,0.05336 1.06122,0.4932245 1.12292,1.0929565 0.0695,0.6755106 -0.43804,1.2885627 -1.12344,1.3590902 -0.64538,0.066409 -1.28802,-0.4282962 -1.35754,-1.1038086 -0.0705,-0.6854031 0.45997,-1.2802814 1.10536,-1.3466878 0.0857,-0.00882 0.17001,-0.00917 0.2527,-0.00155 z" /><g
       id="g53"
       transform="matrix(0.34690909,0,0,0.34690909,116.16355,-15.167256)"><path
         style="opacity:1;fill:none;fill-opacity:1;stroke:#1a1a19;stroke-width:2;stroke-linecap:round;stroke-linejoin:round;stroke-dasharray:none;stroke-opacity:1;paint-order:stroke fill markers"
         d="m 101.80626,132.11407 c 3.12112,1.56057 4.50083,0.24726 4.50083,0.24726 l 2.49813,-2.24766 m 8.4599,-5.62624 16.45057,5.3474 c 0,0 -2.01959,1.83917 -0.0413,2.6491 2.20211,0.90157 4.25073,-1.66348 4.25073,-1.66348 0,0 1.86548,-2.286 5.01377,-5.79199 m 5.60455,-5.92398 c 0.97037,-1.12477 1.97486,-2.30795 2.69215,-3.2385 2.1489,-2.78776 -4.2544,-4.16815 -4.2544,-4.16815 l -8.04981,-1.91578"
         id="path26"
         sodipodi:nodetypes="cccccscccscc" /><path
         style="opacity:1;fill:none;fill-opacity:1;stroke:#1a1a19;stroke-width:2;stroke-linecap:round;stroke-linejoin:round;stroke-dasharray:none;stroke-opacity:1;paint-order:stroke fill markers"
         d="m 111.41604,105.44075 c -0.39014,0.84188 -1.95071,2.56672 -2.13551,3.96301 -0.18481,1.39629 -0.47228,1.97124 -1.02669,2.58725 -0.55441,0.61601 -1.14989,1.66323 -1.33469,2.11497 -0.18481,0.45175 -3.039,4.57903 -4.10675,5.97532 -1.06779,1.3963 -1.02669,4.88703 -1.02669,4.88703 0,0 0.0206,7.14574 -0.0821,9.13752 -0.10267,1.99178 -1.786438,1.25256 -1.786438,1.25256 0,0 -31.888895,-12.27918 -33.572661,-12.91573 -1.683769,-0.63654 -2.051963,-2.80162 -2.051963,-2.80162 l -0.755015,-7.08554 c 0,0 -0.517601,-2.93816 0.527733,-4.05524 1.644338,-1.75719 6.160121,-6.28333 6.611864,-7.06361 0.451742,-0.78028 0.246404,-2.135508 0.821349,-2.751521"
         id="path27"
         sodipodi:nodetypes="csssscscsccssc" /><path
         style="opacity:1;fill:none;fill-opacity:1;stroke:#1a1a19;stroke-width:2;stroke-linecap:round;stroke-linejoin:round;stroke-dasharray:none;stroke-opacity:1;paint-order:stroke fill markers"
         d="m 71.498478,98.685148 38.735252,8.587232 c 0,0 2.00369,-2.55031 2.37329,-4.43942 0.36961,-1.8891 0.0821,-7.884951 3.20327,-10.84181 3.12112,-2.956859 5.79051,-2.29978 8.21349,-6.652932 2.42298,-4.353153 7.92602,-13.798672 9.19912,-14.168279 l 1.27309,-0.369607 -34.784156,-1.889104 c 0,0 -1.026686,-0.123203 -2.587249,1.642698 -1.560565,1.765903 -10.061533,11.622095 -10.061533,11.622095 0,0 -1.4699,1.383608 -2.617374,1.775994 -1.85971,0.635939 -5.642338,1.243699 -7.845536,4.526325 -1.644156,2.449688 -1.505051,5.49216 -2.492381,6.653723 -0.987327,1.161566 -2.609283,3.553085 -2.609283,3.553085 z"
         id="path28"
         sodipodi:nodetypes="ccscssccscsssc" /><path
         style="opacity:1;fill:none;fill-opacity:1;stroke:#1a1a19;stroke-width:2;stroke-linecap:round;stroke-linejoin:round;stroke-dasharray:none;stroke-opacity:1;paint-order:stroke fill markers"
         d="m 134.49599,70.800332 c 0,0 0.45174,-0.164272 1.49896,0.636545 1.04722,0.800815 0.67761,3.963011 0.67761,3.963011 l -0.3391,5.828386 m -0.49366,5.894936 -0.82293,11.742077 m -0.99717,9.520583 -7.26529,6.49026 m -5.77877,4.96569 -3.75156,3.55732"
         id="path29"
         sodipodi:nodetypes="cscccccccc" /><path
         style="opacity:1;fill:none;fill-opacity:1;stroke:#1a1a19;stroke-width:1.5;stroke-linecap:round;stroke-linejoin:round;stroke-dasharray:none;stroke-opacity:1;paint-order:stroke fill markers"
         d="M 97.740596,112.85343 71.868085,105.62555"
         id="path30" /><path
         style="opacity:1;fill:none;fill-opacity:1;stroke:#1a1a19;stroke-width:1;stroke-linecap:round;stroke-linejoin:round;stroke-dasharray:none;stroke-opacity:1;paint-order:stroke fill markers"
         d="m 99.836699,100.28577 c 0,0 0.774571,-1.444694 1.276261,-4.020023 0.50677,-2.601409 1.43143,-5.274149 3.48469,-6.745576 2.19893,-1.575815 5.61736,-2.620137 5.61736,-2.620137"
         id="path31"
         sodipodi:nodetypes="cssc" /><path
         style="opacity:1;fill:none;fill-opacity:1;stroke:#1a1a19;stroke-width:1.5;stroke-linecap:round;stroke-linejoin:round;stroke-dasharray:none;stroke-opacity:1;paint-order:stroke fill markers"
         d="M 118.11637,82.017739 93.722294,79.471551"
         id="path33"
         sodipodi:nodetypes="cc" /><path
         style="opacity:1;fill:none;fill-opacity:1;stroke:#1a1a19;stroke-width:1.5;stroke-linecap:round;stroke-linejoin:round;stroke-dasharray:none;stroke-opacity:1;paint-order:stroke fill markers"
         d="m 78.311966,119.84433 3.020066,0.98733 c 0,0 1.054039,0.0915 1.095105,1.54942 0.04107,1.4579 0.102669,2.93633 0.102669,2.93633 0,0 -0.0308,0.64681 -0.636546,0.65708 -0.605745,0.0103 -2.371648,-0.0103 -2.371648,-0.0103 l -1.796701,0.30801 c 0,0 -0.759748,0.154 -1.129355,0.0103 -0.369607,-0.14373 -2.905524,-1.11909 -2.905524,-1.11909 0,0 -0.390142,-0.0616 -0.431208,-0.86241 -0.04107,-0.80082 -0.05133,-1.6119 -0.05133,-1.6119 0,0 -0.0616,-0.45174 0.287472,-0.82135 0.349073,-0.36961 1.078222,-1.41359 1.150819,-1.66042 0.0726,-0.24683 0.210534,-0.98007 0.210534,-0.98007 0,0 0,-0.35573 0.537223,-0.19601 0.537223,0.15971 2.918424,0.81308 2.918424,0.81308 z"
         id="path34"
         sodipodi:nodetypes="ccscsccscscsscscc" /><path
         style="opacity:1;fill:none;fill-opacity:1;stroke:#1a1a19;stroke-width:1;stroke-linecap:round;stroke-linejoin:round;stroke-dasharray:none;stroke-opacity:1;paint-order:stroke fill markers"
         d="m 84.043257,97.226216 c 0,0 0.774576,-1.4447 1.276266,-4.020029 0.50677,-2.601409 1.43143,-5.274149 3.48469,-6.745576 2.19893,-1.575815 4.078964,-2.686293 4.078964,-2.686293"
         id="path35"
         sodipodi:nodetypes="cssc" /><path
         style="opacity:1;fill:none;fill-opacity:1;stroke:#1a1a19;stroke-width:1;stroke-linecap:round;stroke-linejoin:round;stroke-dasharray:none;stroke-opacity:1;paint-order:stroke fill markers"
         d="m 85.738984,97.580847 c 0,0 0.774576,-1.4447 1.276266,-4.020029 0.50677,-2.601409 1.43143,-5.274149 3.48469,-6.745576 2.19893,-1.575815 4.2227,-2.645225 4.2227,-2.645225"
         id="path36"
         sodipodi:nodetypes="cssc" /><path
         style="opacity:1;fill:none;fill-opacity:1;stroke:#1a1a19;stroke-width:1;stroke-linecap:round;stroke-linejoin:round;stroke-dasharray:none;stroke-opacity:1;paint-order:stroke fill markers"
         d="m 87.402217,97.940187 c 0,0 0.774576,-1.4447 1.276266,-4.020029 0.50677,-2.601409 1.43143,-5.274149 3.48469,-6.745576 2.19893,-1.575815 4.489639,-2.788961 4.489639,-2.788961"
         id="path37"
         sodipodi:nodetypes="cssc" /><path
         style="opacity:1;fill:none;fill-opacity:1;stroke:#1a1a19;stroke-width:1;stroke-linecap:round;stroke-linejoin:round;stroke-dasharray:none;stroke-opacity:1;paint-order:stroke fill markers"
         d="m 89.147584,98.258459 c 0,0 0.774576,-1.4447 1.276266,-4.020029 0.50677,-2.601409 1.43143,-5.274149 3.48469,-6.745576 2.19893,-1.575815 4.510173,-2.768428 4.510173,-2.768428"
         id="path38"
         sodipodi:nodetypes="cssc" /><path
         style="opacity:1;fill:none;fill-opacity:1;stroke:#1a1a19;stroke-width:1;stroke-linecap:round;stroke-linejoin:round;stroke-dasharray:none;stroke-opacity:1;paint-order:stroke fill markers"
         d="m 90.800549,98.586999 c 0,0 0.774576,-1.4447 1.276266,-4.020029 0.50677,-2.601409 1.43143,-5.274149 3.48469,-6.745576 2.19893,-1.575815 4.633385,-2.72736 4.633385,-2.72736"
         id="path39"
         sodipodi:nodetypes="cssc" /><path
         style="opacity:1;fill:none;fill-opacity:1;stroke:#1a1a19;stroke-width:1;stroke-linecap:round;stroke-linejoin:round;stroke-dasharray:none;stroke-opacity:1;paint-order:stroke fill markers"
         d="m 92.556185,98.884738 c 0,0 0.774576,-1.4447 1.276266,-4.020029 0.50677,-2.601409 1.43143,-5.274149 3.48469,-6.745576 2.19893,-1.575815 4.797649,-2.72736 4.797649,-2.72736"
         id="path40"
         sodipodi:nodetypes="cssc" /><path
         style="opacity:1;fill:none;fill-opacity:1;stroke:#1a1a19;stroke-width:1;stroke-linecap:round;stroke-linejoin:round;stroke-dasharray:none;stroke-opacity:1;paint-order:stroke fill markers"
         d="m 94.332355,99.223545 c 0,0 0.774576,-1.4447 1.276266,-4.020029 0.50677,-2.601409 1.43143,-5.274149 3.48469,-6.745576 2.198919,-1.575815 4.941379,-2.72736 4.941379,-2.72736"
         id="path41"
         sodipodi:nodetypes="cssc" /><path
         style="opacity:1;fill:none;fill-opacity:1;stroke:#1a1a19;stroke-width:1;stroke-linecap:round;stroke-linejoin:round;stroke-dasharray:none;stroke-opacity:1;paint-order:stroke fill markers"
         d="m 96.129057,99.582885 c 0,0 0.774576,-1.444699 1.276266,-4.020028 0.50677,-2.601409 1.43143,-5.274149 3.484687,-6.745576 2.19892,-1.575815 5.20832,-2.706827 5.20832,-2.706827"
         id="path42"
         sodipodi:nodetypes="cssc" /><path
         style="opacity:1;fill:none;fill-opacity:1;stroke:#1a1a19;stroke-width:1;stroke-linecap:round;stroke-linejoin:round;stroke-dasharray:none;stroke-opacity:1;paint-order:stroke fill markers"
         d="m 97.966826,99.911427 c 0,0 0.774576,-1.4447 1.276266,-4.020029 0.50677,-2.601409 1.431428,-5.274149 3.484688,-6.745576 2.19892,-1.575815 5.47526,-2.72736 5.47526,-2.72736"
         id="path43"
         sodipodi:nodetypes="cssc" /><path
         style="opacity:1;fill:none;fill-opacity:1;stroke:#1a1a19;stroke-width:2;stroke-linecap:square;stroke-linejoin:round;stroke-dasharray:none;stroke-opacity:1;paint-order:stroke fill markers"
         d="m 120.338,97.135764 c 0,0 7.7244,1.771381 13.2999,1.887539 5.57551,0.116157 6.3886,-0.290391 6.09821,3.368537 -0.29039,3.65893 -2.90391,15.91342 -2.90391,15.91342 0,0 2.61352,1.27772 5.16896,1.21964 2.55544,-0.0581 6.27244,-1.16156 8.42134,0.11616 2.14889,1.27772 0.98733,5.40127 0.98733,5.40127 0,0 -1.36484,3.94932 -4.5301,2.61352 -3.16526,-1.3358 -2.70064,-2.14889 -4.44298,-3.02007 -1.74235,-0.87117 -8.30518,-2.75871 -8.85692,-2.9039 -0.55175,-0.1452 0.14519,-1.36484 0.20327,-4.38491 0.0581,-3.02006 0.5227,-11.84795 0.5227,-11.84795 0,0 -2.03273,0.23232 -3.0491,-0.55174 -1.01637,-0.78405 -1.481,-1.13252 -1.481,-1.13252 l -10.83158,-2.03274"
         id="path44"
         sodipodi:nodetypes="csscsscsssscscc" /><path
         style="opacity:1;fill:none;fill-opacity:1;stroke:#1a1a19;stroke-width:2;stroke-linecap:butt;stroke-linejoin:round;stroke-dasharray:none;stroke-opacity:1;paint-order:stroke fill markers"
         d="m 112.94469,111.99623 c 1.59479,-4.50705 1.88076,-13.029026 5.1059,-19.234197 1.51705,-2.918804 3.39088,-3.328095 3.39088,-3.328095 l 6.67899,0.871175 c 0,0 1.79713,-0.04734 1.65945,2.622084 -0.12951,2.511013 -1.55143,2.652648 -1.55143,2.652648 l -6.96094,-1.067756 c 0,0 -2.25399,3.515978 -3.19855,8.936891 -0.81754,4.69197 -1.08734,6.64678 -1.19575,9.53366 m -0.0411,5.6393 c 0.87529,3.29214 0.33711,5.95277 -0.63681,8.9729 m 0,0 c -1.25212,3.88281 -5.51573,5.50427 -7.7397,2.07089 -2.0042,-3.09411 -0.27392,-8.13628 1.13132,-9.4908"
         id="path46"
         sodipodi:nodetypes="csccsccsccccsc" /><path
         style="opacity:1;fill:none;fill-opacity:1;stroke:#1a1a19;stroke-width:1.5;stroke-linecap:square;stroke-linejoin:round;stroke-dasharray:none;stroke-opacity:1;paint-order:stroke fill markers"
         d="m 112.49745,117.46313 3.8622,0.84213 c 0,0 1.77139,0.31943 2.26505,-1.94562 0.49367,-2.26505 -1.3358,-2.81679 -1.3358,-2.81679 l -6.7661,-1.45196 c 0,0 -1.21965,-0.69693 -2.32313,0.52271 -1.1035,1.21964 0.0621,3.2606 0.0621,3.2606 l 4.39422,11.17036 c 0,0 1.17725,2.73114 3.26807,0.0305 2.09081,-2.70064 0.26135,-5.54647 0.26135,-5.54647 l -1.77139,-2.87487"
         id="path47"
         sodipodi:nodetypes="ccsccscc" /><path
         style="opacity:1;fill:none;fill-opacity:1;stroke:#1a1a19;stroke-width:2;stroke-linecap:butt;stroke-linejoin:round;stroke-dasharray:none;stroke-opacity:1;paint-order:stroke fill markers"
         d="m 128.85873,90.535986 6.56638,-9.262638 7.0181,0.784663 c 0,0 0.96442,0.754556 0.67694,2.376722 -0.2551,1.439508 -1.51949,1.601633 -1.51949,1.601633 l -4.9281,-0.65708 -4.68169,8.249852 c -0.85303,1.563757 -1.93611,2.27722 -2.87472,1.745368"
         id="path48"
         sodipodi:nodetypes="cccscccc" /><path
         style="fill:none;stroke:#1a1a19;stroke-width:1.5;stroke-linecap:round;stroke-linejoin:round;stroke-dasharray:none;stroke-opacity:1;paint-order:stroke fill markers"
         d="m 100.39648,71.947266 a 1.5,1.5 0 0 0 -1.603511,1.386718 1.5,1.5 0 0 0 1.386721,1.605469 L 121.57422,76.5 a 1.5,1.5 0 0 0 1.60547,-1.388672 1.5,1.5 0 0 0 -1.38672,-1.603516 z"
         id="path49" /><path
         style="opacity:1;fill:none;fill-opacity:1;stroke:#1a1a19;stroke-width:1.5;stroke-linecap:round;stroke-linejoin:round;stroke-dasharray:none;stroke-opacity:1;paint-order:stroke fill markers"
         d="m 133.42824,133.48984 -16.6734,-5.68785"
         id="path50"
         sodipodi:nodetypes="cc" /><path
         style="opacity:1;fill:none;fill-opacity:1;stroke:#1a1a19;stroke-width:1.5;stroke-linecap:round;stroke-linejoin:round;stroke-dasharray:none;stroke-opacity:1;paint-order:stroke fill markers"
         d="m 137.63455,116.80598 c 2.5183,-3.73175 8.26558,-2.91833 9.2868,-2.0224 0.7067,0.62 -3.41015,1.23208 -5.3703,4.26218"
         id="path52"
         sodipodi:nodetypes="csc" /><path
         style="opacity:1;fill:none;fill-opacity:1;stroke:#1a1a19;stroke-width:2;stroke-linecap:round;stroke-linejoin:round;stroke-dasharray:none;stroke-opacity:1;paint-order:stroke fill markers"
         d="m 121.20215,119.59358 0.0701,-2.83874 c 0,0 -0.1232,-2.58725 2.75152,-2.29978 2.87472,0.28747 6.65293,1.31416 6.65293,1.31416 0,0 2.70895,0.49891 2.76703,2.3002 0.0739,2.29363 -0.10122,5.84562 -0.10122,5.84562 0,0 1.85658,1.12484 1.03027,2.69599 -0.79726,1.5159 -2.41875,2.53709 -4.59272,1.9448"
         id="path53"
         sodipodi:nodetypes="ccscscsc" /></g><path
       id="rect10"
       style="fill:none;fill-opacity:0.5;stroke:#1a1a19;stroke-width:0.463225;stroke-linecap:round;stroke-dasharray:none;stroke-opacity:1;paint-order:stroke fill markers"
       d="m 177.11215,24.713401 c -0.0925,0 -0.16703,0.07455 -0.16703,0.167039 v 4.136701 c 0,0.09249 0.0745,0.167039 0.16703,0.167039 h 2.03122 v 2.159298 c 0,0.139729 0.0791,0.172214 0.17727,0.07279 l 1.84387,-1.867144 c 0.0982,-0.09942 0.17711,-0.291899 0.17711,-0.431628 v -0.04737 c 0.006,-0.0167 0.009,-0.03436 0.009,-0.05298 V 24.88044 c 0,-0.09249 -0.0745,-0.167039 -0.16703,-0.167039 z" /><path
       id="rect12"
       style="fill:none;fill-opacity:0.75;stroke:#1a1a19;stroke-width:0.463225;stroke-linecap:round;stroke-dasharray:none;stroke-opacity:1;paint-order:stroke fill markers"
       d="m 184.31218,22.413308 c -0.0283,0.0015 -0.0624,0.02016 -0.0992,0.05744 l -1.84388,1.867144 c -0.0982,0.09942 -0.17711,0.292064 -0.17711,0.431793 v 0.04721 c -0.006,0.01671 -0.009,0.03434 -0.009,0.05298 v 4.136701 c 0,0.09249 0.0745,0.167039 0.16704,0.167039 h 4.07183 c 0.0925,0 0.16704,-0.07455 0.16704,-0.167039 v -4.136701 c 0,-0.09249 -0.0745,-0.167039 -0.16704,-0.167039 h -2.03121 v -2.159298 c 0,-0.08733 -0.0309,-0.132716 -0.0781,-0.130231 z" /><path
       id="rect14"
       style="fill:url(#pattern20);fill-opacity:1;stroke:#1a1a19;stroke-width:0.463225;stroke-linecap:round;stroke-dasharray:none;stroke-opacity:1;paint-order:stroke fill markers"
       d="m 181.26361,25.044595 c -0.0283,0.0015 -0.0624,0.02016 -0.0992,0.05744 l -1.84371,1.867144 c -0.0982,0.09942 -0.17727,0.292064 -0.17727,0.431793 v 1.806898 h 2.04062 c 0.0739,0 0.13551,-0.04781 0.15763,-0.114056 v -3.918988 c 0,-0.08733 -0.0309,-0.132717 -0.0781,-0.130232 z" /><g
       id="rect15"><path
         style="fill:#1a1a19;stroke-linecap:round;paint-order:stroke fill markers"
         d="m 182.34961,24.470703 c -0.17389,0 -0.32442,0.116309 -0.37695,0.273438 l -0.0117,0.03516 v 3.957031 c 0,0.05673 0.005,0.112755 0.0312,0.173828 0.0258,0.06107 0.0814,0.132013 0.16406,0.166016 0.0827,0.034 0.17109,0.0214 0.23242,-0.0039 0.0613,-0.02531 0.10465,-0.06119 0.14453,-0.101563 l 1.84375,-1.867187 c 0.15964,-0.16162 0.24414,-0.366644 0.24414,-0.59375 v -2.039063 z m 0.0742,0.462891 h 1.73437 v 1.576172 c 0,0.05235 -0.0726,0.232311 -0.10937,0.269531 l -1.625,1.646484 z"
         id="path79" /><path
         style="fill:url(#pattern21);stroke-linecap:round;paint-order:stroke fill markers"
         d="m 182.34964,24.702837 c -0.0738,0 -0.1355,0.04784 -0.15764,0.114056 v 3.918988 c 0,0.139729 0.0789,0.172214 0.17711,0.07279 l 1.84388,-1.867144 c 0.0982,-0.09942 0.17727,-0.292064 0.17727,-0.431794 v -1.806897 z"
         id="path80" /></g><text
       xml:space="preserve"
       style="font-style:normal;font-variant:normal;font-weight:bold;font-stretch:normal;font-size:7.60927px;font-family:Calibri;-inkscape-font-specification:'Calibri, Bold';font-variant-ligatures:normal;font-variant-caps:normal;font-variant-numeric:normal;font-variant-east-asian:normal;text-align:start;writing-mode:lr-tb;direction:ltr;text-anchor:start;fill:#1a1a19;fill-opacity:1;stroke:none;stroke-width:1.19273;stroke-linecap:round;stroke-dasharray:none;stroke-opacity:1;paint-order:stroke fill markers"
       x="187.51486"
       y="29.408545"
       id="text21"><tspan
         sodipodi:role="line"
         id="tspan21"
         style="font-style:normal;font-variant:normal;font-weight:normal;font-stretch:normal;font-size:7.60927px;font-family:Calibri;-inkscape-font-specification:'Calibri, Normal';font-variant-ligatures:normal;font-variant-caps:normal;font-variant-numeric:normal;font-variant-east-asian:normal;stroke:none;stroke-width:1.19273"
         x="187.51486"
         y="29.408545">DH<tspan
   style="font-style:normal;font-variant:normal;font-weight:300;font-stretch:normal;font-size:7.60927px;font-family:Calibri;-inkscape-font-specification:'Calibri, Light';font-variant-ligatures:normal;font-variant-caps:normal;font-variant-numeric:normal;font-variant-east-asian:normal;stroke-width:1.19273"
   id="tspan23">BW</tspan></tspan></text><g
       style="fill:none;stroke:#1a1a19;stroke-width:5.80125;stroke-linecap:square;stroke-miterlimit:10;stroke-dasharray:none;stroke-opacity:1"
       id="g78"
       transform="matrix(0.09480711,0,0,0.09480711,165.39459,3.4188343)"><g
         transform="translate(8.964,4.2527)"
         fill-rule="evenodd"
         stroke="#000000"
         stroke-linecap="butt"
         stroke-linejoin="round"
         stroke-width="4"
         id="g6"
         style="stroke:#1a1a19;stroke-width:5.80125;stroke-dasharray:none;stroke-opacity:1"><path
           d="M 63.02,200.61 19.807,25.67 193.037,75.544 Z"
           id="path1-6"
           style="stroke:#1a1a19;stroke-width:5.80125;stroke-dasharray:none;stroke-opacity:1" /><path
           d="m 106.39,50.612 21.591,87.496 -86.567,-24.945 z"
           id="path2"
           style="stroke:#1a1a19;stroke-width:5.80125;stroke-dasharray:none;stroke-opacity:1" /><path
           d="M 84.91,125.03 74.186,81.565 117.194,93.911 Z"
           id="path3"
           style="stroke:#1a1a19;stroke-width:5.80125;stroke-dasharray:none;stroke-opacity:1" /><path
           d="M 63.458,38.153 74.182,81.618 31.174,69.272 Z"
           id="path4"
           style="stroke:#1a1a19;stroke-width:5.80125;stroke-dasharray:none;stroke-opacity:1" /><path
           d="m 149.47,62.93 10.724,43.465 -43.008,-12.346 z"
           id="path5"
           style="stroke:#1a1a19;stroke-width:5.80125;stroke-dasharray:none;stroke-opacity:1" /><path
           d="M 84.915,125.06 95.639,168.525 52.631,156.179 Z"
           id="path6"
           style="stroke:#1a1a19;stroke-width:5.80125;stroke-dasharray:none;stroke-opacity:1" /></g></g><path
       fill="currentColor"
       d="m 186.52266,16.587452 c 0.31627,-1.268632 1.10733,-1.903078 2.37267,-1.903078 1.89812,0 2.13539,1.427303 3.08445,1.665181 0.6328,0.158672 1.18633,-0.07921 1.66086,-0.713652 -0.31626,1.268632 -1.10732,1.903078 -2.37266,1.903078 -1.89813,0 -2.13539,-1.427304 -3.08445,-1.665181 -0.6328,-0.158672 -1.18634,0.07921 -1.66087,0.713652 M 184.15,19.442058 c 0.31627,-1.268632 1.10733,-1.903077 2.37266,-1.903077 1.89813,0 2.1354,1.427303 3.08446,1.66518 0.6328,0.158673 1.18633,-0.0792 1.66086,-0.713651 -0.31626,1.268632 -1.10733,1.903078 -2.37265,1.903078 -1.89814,0 -2.1354,-1.427304 -3.08446,-1.665182 -0.63281,-0.158671 -1.18634,0.07921 -1.66087,0.713652"
       id="path1-8"
       style="fill:#1a1a19;fill-opacity:1;stroke-width:0.0185364" /><path
       id="path1-7"
       style="fill:#1a1a19;fill-opacity:1;stroke-width:1.383;stroke-dasharray:none"
       d="m 135.83682,4.8210434 c -0.0152,-0.00116 -0.0309,-5.681e-4 -0.0469,0.00276 l -4.77534,0.9864471 a 0.17221869,0.17221869 0 0 0 -0.0985,0.060272 0.19570305,0.19570305 0 0 0 -0.0428,0.1113434 l -0.0401,0.7108491 -0.023,0.404425 4.6e-4,-4.603e-4 -0.23096,4.1183243 a 0.18787494,0.18787494 0 0 0 0.0621,0.151832 0.16439058,0.16439058 0 0 0 0.1523,0.0391 l 1.32921,-0.324368 c 0.12516,-0.02974 0.23679,0.08611 0.21165,0.217625 l -0.39569,2.040068 c -0.0266,0.137786 0.0956,0.255086 0.22315,0.214405 l 0.82128,-0.262716 c 0.12692,-0.04072 0.24974,0.07662 0.22222,0.214405 l -0.62711,3.204112 c -0.0391,0.201189 0.21283,0.309928 0.31839,0.138489 l 0.0709,-0.115024 3.89058,-8.1915583 c 0.0657,-0.1369857 -0.0472,-0.293521 -0.18957,-0.2645556 l -1.36833,0.2788196 c -0.129,0.02663 -0.23778,-0.1000676 -0.20198,-0.2323491 l 0.33725,-1.234439 0.12699,-0.4642372 h -4.6e-4 l 0.42835,-1.5680089 c 0.0321,-0.116445 -0.0476,-0.2274643 -0.15413,-0.2355691 z m 4.05161,1.0453387 c -0.0464,0.00151 -0.0933,0.00647 -0.14125,0.015183 l -3.58047,0.6363134 -0.16149,0.5903041 3.84042,-0.6818632 a 0.37105301,0.37105301 0 0 1 0.3897,0.5456749 l -6.83196,12.1948567 a 0.36792177,0.36792177 0 0 1 -0.39155,0.183118 0.36792177,0.36792177 0 0 1 -0.25535,-0.180817 L 125.78785,6.9729139 a 0.37105301,0.37105301 0 0 1 0.38832,-0.5479746 l 4.01803,0.7168304 0.058,0.010122 0.0391,-0.5562566 -4.0171,-0.7163701 a 0.91589031,0.91589031 0 0 0 -0.91145,0.3662364 0.90806226,0.90806226 0 0 0 -0.0548,1.0020904 l 6.9677,12.1962372 a 0.92528412,0.92528412 0 0 0 1.61034,-0.0064 L 140.71933,7.2430211 C 141.07892,6.6008715 140.58384,5.843722 139.8884,5.8664123 Z" /><path
       fill="currentColor"
       d="m 126.48557,23.956385 q -0.13285,-0.151619 -0.27997,-0.303999 0.10264,-0.108625 0.19901,-0.216509 c 1.21073,-1.360832 1.72217,-2.726191 1.24844,-3.546159 -0.45411,-0.786776 -1.80515,-1.021378 -3.49713,-0.692486 q -0.24975,0.04904 -0.49711,0.110136 -0.0476,-0.162938 -0.10036,-0.324367 c -0.57405,-1.729706 -1.50113,-2.854428 -2.4486,-2.853673 -0.9082,0 -1.78626,1.053815 -2.34672,2.683947 q -0.0829,0.241398 -0.1531,0.485793 -0.16536,-0.04074 -0.33193,-0.07544 c -1.78478,-0.365856 -3.2218,-0.124477 -3.69476,0.697011 -0.45337,0.786776 0.02,2.074437 1.15262,3.373414 q 0.16907,0.19236 0.347,0.377168 -0.2104,0.214998 -0.39604,0.430728 c -1.10509,1.280873 -1.55165,2.546658 -1.09904,3.330417 0.46768,0.810162 1.88434,1.074936 3.60952,0.735481 q 0.20983,-0.04149 0.41713,-0.09355 0.0755,0.264776 0.16678,0.525776 c 0.55821,1.59694 1.43098,2.616054 2.33619,2.616054 0.93537,0 1.87228,-1.096058 2.4403,-2.760132 q 0.0673,-0.196893 0.12744,-0.4081 0.26771,0.06637 0.53936,0.117664 c 1.66182,0.314559 2.98115,0.06789 3.43301,-0.716624 0.46692,-0.810919 -0.0142,-2.170241 -1.17227,-3.4926 m -11.34377,-3.714376 c 0.29118,-0.505406 1.46571,-0.703044 3.00681,-0.38622 q 0.14798,0.03016 0.30099,0.06788 a 15.46399,15.46399 0 0 0 -0.31835,2.020121 15.84116,15.84116 0 0 0 -1.58635,1.276346 q -0.16508,-0.171235 -0.32211,-0.350768 c -0.97085,-1.111899 -1.35406,-2.15289 -1.08099,-2.627371 m 2.93214,4.320867 c -0.38471,-0.29193 -0.74304,-0.590649 -1.06814,-0.890876 0.32436,-0.298719 0.68265,-0.59593 1.06737,-0.887105 q -0.02,0.444305 -0.02,0.889368 0,0.445061 0.02,0.888613 m 0,2.972103 a 5.4312551,5.4312551 0 0 1 -1.99146,0.0709 1.3351835,1.3351835 0 0 1 -0.93614,-0.495602 c -0.27541,-0.475235 0.0838,-1.492087 1.02892,-2.58739 q 0.1779,-0.205931 0.36812,-0.401311 a 15.46399,15.46399 0 0 0 1.58938,1.282381 15.84116,15.84116 0 0 0 0.32137,2.045773 q -0.18874,0.04753 -0.38095,0.08599 z m 5.35582,-6.064145 q -0.37944,-0.239118 -0.76793,-0.462413 -0.38321,-0.220273 -0.77472,-0.424692 a 14.332479,14.332479 0 0 1 1.31183,-0.479009 13.578137,13.578137 0 0 1 0.23093,1.366114 m -4.0561,-2.448593 c 0.47977,-1.39553 1.19037,-2.247935 1.738,-2.247935 0.58312,-7.56e-4 1.34047,0.918786 1.83607,2.411628 q 0.0482,0.146344 0.0904,0.294192 a 15.46399,15.46399 0 0 0 -1.90547,0.731711 15.08682,15.08682 0 0 0 -1.90093,-0.740008 q 0.0656,-0.226288 0.14169,-0.449588 m -0.30173,1.074182 a 13.578137,13.578137 0 0 1 1.30501,0.484286 q -0.79355,0.408852 -1.5449,0.890877 c 0.0604,-0.481269 0.14113,-0.94217 0.23978,-1.375163 m -0.23921,5.778251 q 0.37489,0.240629 0.76113,0.462412 0.39375,0.226317 0.79735,0.434501 a 13.578137,13.578137 0 0 1 -1.3156,0.501637 14.332479,14.332479 0 0 1 -0.2429,-1.397794 z m 4.11567,2.373156 a 5.4312551,5.4312551 0 0 1 -0.93386,1.759879 1.3351835,1.3351835 0 0 1 -0.89617,0.564249 c -0.54992,0 -1.25067,-0.818461 -1.72743,-2.184574 q -0.0844,-0.242139 -0.15538,-0.488813 a 15.08682,15.08682 0 0 0 1.9085,-0.761883 15.84116,15.84116 0 0 0 1.92129,0.738498 q -0.0545,0.187828 -0.11689,0.372644 m 0.27313,-0.998746 a 14.332479,14.332479 0 0 1 -1.32914,-0.487305 q 0.38396,-0.201398 0.77318,-0.426201 0.39981,-0.230821 0.77848,-0.472973 a 13.578137,13.578137 0 0 1 -0.22238,1.386479 m 0.3372,-3.57784 q 0,0.687207 -0.043,1.372902 -0.55898,0.378679 -1.17224,0.733219 -0.61101,0.352276 -1.20469,0.645715 -0.62384,-0.298719 -1.22356,-0.644207 -0.59592,-0.343224 -1.16468,-0.730956 -0.0528,-0.68645 -0.0528,-1.374409 0,-0.687203 0.0514,-1.373655 a 18.104184,18.104184 0 0 1 2.38219,-1.375165 q 0.61555,0.299475 1.20922,0.641947 0.59593,0.342471 1.16921,0.723411 0.0491,0.689467 0.0491,1.381198 m 0.72114,-3.841859 c 1.44985,-0.28137 2.54214,-0.09203 2.81595,0.382452 0.29196,0.505409 -0.12601,1.620325 -1.17223,2.795588 q -0.0867,0.09731 -0.17962,0.195383 a 15.08682,15.08682 0 0 0 -1.61618,-1.273289 15.08682,15.08682 0 0 0 -0.30549,-1.998249 q 0.23379,-0.05733 0.45862,-0.101839 m -0.0981,2.930614 a 13.578137,13.578137 0 0 1 1.10284,0.896157 13.578137,13.578137 0 0 1 -1.09908,0.911245 q 0.0171,-0.44808 0.0171,-0.896157 0,-0.455621 -0.0199,-0.911245 m 2.91853,4.36688 c -0.27455,0.475992 -1.33365,0.674383 -2.75559,0.405836 q -0.24434,-0.04602 -0.50091,-0.110136 a 15.08682,15.08682 0 0 0 0.29196,-2.023141 15.08682,15.08682 0 0 0 1.61201,-1.293696 q 0.13342,0.138047 0.25346,0.274584 a 5.4312551,5.4312551 0 0 1 1.05833,1.688217 1.3351835,1.3351835 0 0 1 0.0408,1.058339 m -6.65253,-4.632408 a 1.3472529,1.3472529 0 1 0 1.84059,0.493342 1.3472529,1.3472529 0 0 0 -1.84059,-0.493342"
       id="path1-9"
       style="fill:#1a1a19;fill-opacity:1;stroke-width:0.75434" /><path
       fill="#007fff"
       d="m 117.59175,11.495435 a 0.25828253,0.25828253 0 0 0 0.12968,-0.223191 l 0.005,-1.4949507 a 0.25828253,0.25828253 0 0 1 0.12968,-0.2232278 l 0.81038,-0.4654899 a 0.25828253,0.25828253 0 0 1 0.38699,0.2239543 v 2.7178881 a 0.25828253,0.25828253 0 0 1 -0.12969,0.22399 l -3.05834,1.756648 a 0.25828253,0.25828253 0 0 1 -0.25683,2.61e-4 l -2.4001,-1.372791 a 0.25828253,0.25828253 0 0 1 -0.13024,-0.224208 v -1.37046 c 0,-0.0015 0.002,-0.0025 0.003,-0.0018 10e-4,7.99e-4 0.003,0 0.003,-0.0018 v -0.0015 c 0,-10e-4 5.2e-4,-0.0021 10e-4,-0.0026 l 1.97675,-1.1356078 c 0.002,-0.00107 6.7e-4,-0.00387 -10e-4,-0.00387 a 0.00207062,0.00207062 0 0 1 -0.002,-0.00207 l 0.004,-1.3435777 a 0.25831885,0.25831885 0 0 0 -0.38715,-0.2247758 l -1.46908,0.8465925 a 0.25828253,0.25828253 0 0 1 -0.25781,0 l -1.47377,-0.84859 a 0.25828253,0.25828253 0 0 0 -0.38725,0.2236997 V 10.97625 a 0.25828253,0.25828253 0 0 1 -0.38644,0.224499 l -0.81789,-0.467669 a 0.25828253,0.25828253 0 0 1 -0.1302,-0.224681 l 0.007,-4.2444063 a 0.25828253,0.25828253 0 0 1 0.38692,-0.2233725 l 2.80162,1.6090526 a 0.25828253,0.25828253 0 0 0 0.2573,0 l 2.80079,-1.6091253 a 0.25828253,0.25828253 0 0 1 0.38698,0.2242083 v 4.2453872 a 0.25828253,0.25828253 0 0 1 -0.12939,0.22399 l -1.4668,0.84474 a 0.25831885,0.25831885 0 0 0 6.7e-4,0.448198 l 0.8091,0.460623 a 0.25828253,0.25828253 0 0 0 0.2565,-5.5e-4 z m 0.16971,-3.8083049 a 0.25831885,0.25831885 0 0 0 0.39113,0.2213749 l 0.77499,-0.4649813 a 0.25828253,0.25828253 0 0 0 0.12555,-0.221375 V 6.2745682 A 0.25831885,0.25831885 0 0 0 118.662,6.0534479 l -0.77495,0.4649813 a 0.25828253,0.25828253 0 0 0 -0.12559,0.2214109 v 0.9475446 z"
       id="path1-29"
       style="fill:#1a1a19;fill-opacity:1;stroke-width:0.0363266" /><path
       fill="currentColor"
       fill-rule="evenodd"
       d="m 102.77985,17.307772 c 3.16123,0 5.72394,2.562679 5.72394,5.723945 0,3.161265 -2.56271,5.723945 -5.72394,5.723945 -3.16124,0 -5.723979,-2.562709 -5.723979,-5.723945 0,-3.161236 2.562709,-5.723945 5.723979,-5.723945 m 2.37102,1.676624 c 0.92589,0 1.67648,0.750561 1.67648,1.676446 0,0.925885 -0.75059,1.676475 -1.67648,1.676475 -0.92588,0 -1.67644,-0.75059 -1.67644,-1.676475 0,-0.925885 0.75056,-1.676446 1.67644,-1.676446 m -7.088769,-1.358874 -0.298058,-0.342113 a 7.6299438,7.6299438 0 0 1 0.796697,-0.606528 l 0.250523,0.378314 a 7.1688746,7.1688746 0 0 0 -0.749162,0.570327 m -1.613949,9.660462 a 7.61507,7.61507 0 0 0 0.610962,0.793365 l 0.340446,-0.299963 a 7.1688746,7.1688746 0 0 1 -0.574462,-0.74601 z m 4.052288,-11.056131 -0.14424,-0.430222 a 7.644817,7.644817 0 0 0 -0.926539,0.380009 l 0.19933,0.407615 a 7.198621,7.198621 0 0 1 0.871449,-0.357402 m -3.105579,2.059579 -0.340597,-0.299785 a 7.61507,7.61507 0 0 0 -0.610573,0.793634 l 0.377095,0.252368 a 7.1688746,7.1688746 0 0 1 0.574045,-0.746247 m -1.045347,1.561595 -0.406871,-0.200877 a 7.7043097,7.7043097 0 0 0 -0.383609,0.924815 l 0.429597,0.146084 a 7.2283673,7.2283673 0 0 1 0.360883,-0.870022 m 3.086394,10.036663 a 7.7043097,7.7043097 0 0 0 0.926842,0.378523 l 0.14379,-0.430371 a 7.2283673,7.2283673 0 0 1 -0.872016,-0.356124 z m -3.875446,-4.391873 a 7.7043097,7.7043097 0 0 0 0.38575,0.923982 l 0.406514,-0.201621 a 7.2581137,7.2581137 0 0 1 -0.363024,-0.869427 z m 14.373798,-3.016936 0.45245,-0.0348 a 7.5853243,7.5853243 0 0 0 -0.14267,-0.991447 l -0.44387,0.09421 a 7.1391283,7.1391283 0 0 1 0.13409,0.932043 m -14.190114,-0.848128 -0.444947,-0.08891 a 7.6745634,7.6745634 0 0 0 -0.131568,0.992636 l 0.45274,0.02998 a 7.2283673,7.2283673 0 0 1 0.123745,-0.933708 m -0.124043,1.875419 -0.452769,0.02971 a 7.6001975,7.6001975 0 0 0 0.131657,0.992994 l 0.444887,-0.08924 a 7.1391283,7.1391283 0 0 1 -0.123745,-0.933501 m 2.149176,5.279088 a 7.61507,7.61507 0 0 0 0.797023,0.606112 l 0.250316,-0.378492 a 7.1688746,7.1688746 0 0 1 -0.74943,-0.569941 z m 9.044921,0.179489 0.25466,0.375549 a 7.61507,7.61507 0 0 0 0.79001,-0.615333 l -0.30187,-0.338812 a 7.1688746,7.1688746 0 0 1 -0.7428,0.578596 m -4.46865,-13.0934 -0.0274,-0.452918 a 7.644817,7.644817 0 0 0 -0.99347,0.126035 l 0.0866,0.445422 a 7.198621,7.198621 0 0 1 0.93433,-0.118539 m 5.87131,11.843577 0.34387,0.296006 a 7.61507,7.61507 0 0 0 0.60176,-0.800356 l -0.37986,-0.248203 a 7.1688746,7.1688746 0 0 1 -0.56577,0.752582 m 1.02809,-1.573047 0.40908,0.196415 a 7.7043097,7.7043097 0 0 0 0.37343,-0.92892 l -0.43114,-0.141444 a 7.2283673,7.2283673 0 0 1 -0.35137,0.873949 m 0.69943,-2.721198 a 7.2134942,7.2134942 0 0 1 -0.11349,0.934958 l 0.4459,0.08406 a 7.6745634,7.6745634 0 0 0 0.12066,-0.994064 z m 0.0274,-2.931951 a 7.7340561,7.7340561 0 0 0 -0.39578,-0.919698 l -0.40431,0.206023 a 7.2729869,7.2729869 0 0 1 0.37248,0.865471 z m -8.64076,10.032086 a 7.6745634,7.6745634 0 0 0 0.99335,0.126124 l 0.0275,-0.452918 a 7.198621,7.198621 0 0 1 -0.9343,-0.118658 z m 2.9805,-14.961115 a 7.6745634,7.6745634 0 0 0 -0.99204,-0.136149 l -0.0321,0.45262 a 7.198621,7.198621 0 0 1 0.93305,0.128058 z m -1.01786,14.629383 0.0322,0.452621 a 7.6001975,7.6001975 0 0 0 0.99225,-0.137131 l -0.0917,-0.44441 a 7.1391283,7.1391283 0 0 1 -0.93279,0.12892 m 2.90604,-13.975201 a 7.644817,7.644817 0 0 0 -0.92252,-0.389261 l -0.14853,0.428764 a 7.198621,7.198621 0 0 1 0.86758,0.366059 z m -1.06558,13.595399 0.14948,0.428438 a 7.7340561,7.7340561 0 0 0 0.92184,-0.390779 l -0.20382,-0.405413 a 7.2581137,7.2581137 0 0 1 -0.8675,0.367754 m 3.36985,-10.824852 c 0.926,0 1.67662,-0.75065 1.67662,-1.676624 0,-0.925975 -0.75065,-1.676625 -1.67662,-1.676625 -0.92597,0 -1.67662,0.75065 -1.67662,1.676625 0,0.925974 0.75065,1.676624 1.67662,1.676624"
       clip-rule="evenodd"
       id="path1-96"
       style="fill:#1a1a19;fill-opacity:1;stroke-width:0.0297464" /><rect
       style="font-variation-settings:'wdth' 75, 'wght' 300;fill:url(#linearGradient4);stroke-width:0.297716;stroke-linecap:round;paint-order:stroke fill markers"
       id="rect3"
       width="210"
       height="33.685349"
       x="0.00010572204"
       y="0.00011560055"
       inkscape:transform-center-x="10.221754"
       inkscape:transform-center-y="-103.35277" /><path
       d="m 48.252842,9.9965537 v 9.0429793 h 1.614707 v -4.412516 l 1.8126,4.412516 h 1.560278 V 10.01157 h -1.614353 v 4.687535 L 49.81447,9.9978917 Z"
       style="fill:#1a1a19;fill-opacity:1;stroke-width:0.645846"
       id="path1-73" /><path
       id="path24"
       style="fill:#1a1a19;fill-opacity:1;stroke-width:2.9941;stroke-linecap:round;stroke-linejoin:round;paint-order:fill markers stroke"
       d="m 15.07336,8.0011175 c -6.8347372,0 -5.8557613,7.2581425 -5.8557613,7.2581425 0,0 -0.7707754,-0.02165 -0.7854164,0.377531 -0.01866,0.506109 0.8382204,0.369985 0.8382204,0.369985 v 13.698168 h 7.6722233 c 0.07553,0 0,-1.661166 0,-1.661166 h -3.926729 l 0.02315,-0.6599 h 5.926919 V 25.087956 H 17.0116 c 0,0 -0.720826,-1.04e-4 -0.720826,-0.934538 0,-0.934436 0.833,-0.848086 0.833,-0.848086 h 1.78205 v -0.868391 c 0,0 1.8e-5,-0.0077 -0.283145,-0.01148 -0.28318,-0.0038 -0.770149,-0.207682 -0.770149,-0.838221 0,-0.630541 0.536075,-0.943822 0.739971,-0.943822 0.203894,0 0.362538,-0.01148 0.366307,0.339622 0.0036,0.351137 -0.177628,0.294556 -0.177628,0.294556 0,0 -0.313324,-0.0075 -0.313324,0.271929 -0.0072,0.245415 0.392611,0.218936 0.392611,0.218936 h 2.193229 v -5.672529 c 0,0 0.731466,0.09612 0.731466,-0.395128 0,-0.491254 -0.752943,-0.501888 -0.752943,-0.501888 0,0 0.854333,-7.1764282 -5.959016,-7.1977994 z m -0.08881,0.4260723 c 0.436927,-0.00268 1.835374,0.2692073 1.850894,0.4709437 0.01614,0.2082435 -0.24021,0.1922482 -0.24021,0.1922482 0,0 -0.800902,-0.021367 -1.019831,0.053377 -0.21893,0.07476 -0.432657,0.2990062 -0.432657,0.2990062 l -0.208097,-0.0054 -0.635529,-0.603233 H 14.032212 V 8.5778985 c 0,0 0.528612,-0.1283223 0.913076,-0.1496912 0.01256,-7.415e-4 0.02512,-7.415e-4 0.03929,-0.00115 z m -1.743941,0.6264426 c 0.01615,0.00114 0.03374,0.00342 0.05275,0.00772 0.30516,0.067802 0.07088,0.3635985 0.35102,0.5024695 0.280077,0.138854 0.373825,-0.2266125 0.612528,-0.02474 0.238684,0.201854 -0.106038,0.3549557 0.07733,0.6080691 0.183441,0.253106 0.436157,-0.02684 0.553713,0.262838 0.117521,0.289662 -0.258905,0.264848 -0.214103,0.57422 0.04486,0.309379 0.398782,0.178992 0.368244,0.490092 -0.0305,0.31111 -0.352347,0.114291 -0.45643,0.409054 -0.104065,0.29476 0.26985,0.343692 0.09832,0.604978 -0.171707,0.261283 -0.364997,-0.06255 -0.594155,0.150085 -0.229138,0.212628 0.07912,0.429772 -0.194169,0.581378 -0.273385,0.151611 -0.29418,-0.22509 -0.595895,-0.143304 -0.301715,0.08178 -0.129542,0.417524 -0.442112,0.424717 -0.312534,0.0072 -0.155917,-0.336219 -0.461095,-0.404024 -0.30516,-0.0678 -0.30866,0.309448 -0.588719,0.170576 -0.280059,-0.138855 0.01812,-0.369854 -0.220491,-0.571709 -0.238684,-0.201853 -0.417263,0.130493 -0.600721,-0.122616 -0.183441,-0.253116 0.188159,-0.319185 0.07069,-0.608848 -0.11752,-0.289661 -0.430198,-0.07841 -0.475,-0.387777 -0.04486,-0.309378 0.314885,-0.195229 0.345422,-0.506338 0.0305,-0.31111 -0.34431,-0.269018 -0.240209,-0.563779 0.104064,-0.294762 0.369338,-0.02668 0.540955,-0.287982 0.171527,-0.2612844 -0.179835,-0.3983431 0.04934,-0.6109701 0.229139,-0.212618 0.339519,0.14813 0.612905,-0.0034 0.273366,-0.151611 0.02584,-0.4363525 0.327623,-0.5181328 0.301715,-0.08178 0.231723,0.2889898 0.544239,0.2817898 0.292996,-0.0068 0.23506,-0.329794 0.478104,-0.314283 z m 3.137808,0.3419415 c 0.01615,7.41e-4 0.03516,0.0043 0.05669,0.01059 0.172604,0.05053 0.0811,0.162053 0.221245,0.274832 0.140307,0.112784 0.229444,-7.42e-4 0.315835,0.157047 0.0863,0.1578557 -0.05724,0.1719411 -0.03786,0.3508401 0.01938,0.178902 0.162914,0.161695 0.112317,0.334397 -0.0506,0.172712 -0.162014,0.08103 -0.274816,0.221258 -0.112857,0.140217 5.71e-4,0.229639 -0.157173,0.316027 -0.157892,0.08639 -0.171886,-0.05752 -0.350842,-0.03811 -0.178883,0.01938 -0.161658,0.162896 -0.334405,0.112371 -0.172604,-0.05054 -0.0811,-0.162053 -0.221245,-0.274828 -0.140128,-0.112785 -0.229444,7.41e-4 -0.315835,-0.157245 -0.08648,-0.157855 0.05724,-0.171742 0.03786,-0.350644 -0.01938,-0.178901 -0.162914,-0.161892 -0.112317,-0.334592 0.0506,-0.1727121 0.162197,-0.08104 0.275017,-0.2212581 0.112856,-0.140218 -7.99e-4,-0.229441 0.156994,-0.315832 0.15789,-0.08639 0.171886,0.05729 0.35084,0.03791 0.156456,-0.01704 0.162915,-0.12895 0.277727,-0.122814 z m 1.455574,0.36573 c 0.02476,-7.41e-4 0.04127,7.42e-4 0.04127,7.42e-4 h 0.808061 l 0.728558,0.7287551 v 0.339815 h -1.642405 c -0.158608,0 -0.173681,-0.230346 -0.173681,-0.230346 V 9.9999356 c 0,0 -0.0036,0.0056 0.0036,-0.08878 0.01076,-0.1275147 0.160043,-0.1476097 0.234395,-0.1496917 z M 12.82284,9.9500676 c -0.250957,0 -0.533994,0.1146864 -0.533994,0.1146864 0,0 -0.02207,0.112874 0.05974,0.222997 0.08182,0.110129 0.267285,0.217579 0.458189,0.217579 0.190886,0 0.403016,-0.135445 0.492799,-0.24156 0.08971,-0.106128 0.05705,-0.182963 0.05705,-0.182963 0,0 -0.28284,-0.1307454 -0.533814,-0.1307454 z m 3.361586,0.1139144 a 0.2265412,0.2265412 0 0 0 -0.226662,0.226674 0.2265412,0.2265412 0 0 0 0.226662,0.226478 0.2265412,0.2265412 0 0 0 0.226485,-0.226478 0.2265412,0.2265412 0 0 0 -0.226485,-0.226674 z m -4.350844,0.289916 c -0.0018,-1.7e-5 -0.0036,1.94e-4 -0.0036,1.94e-4 0,0 -0.211037,0.229488 -0.287793,0.468428 -0.07679,0.238938 -0.054,0.543474 -0.054,0.543474 0,0 0.100476,0.05538 0.230341,0.01131 0.129904,-0.04417 0.28898,-0.187859 0.347363,-0.369601 0.05831,-0.181749 -0.0054,-0.425355 -0.07931,-0.543278 -0.0644,-0.103205 -0.135992,-0.110292 -0.153038,-0.110435 z m 2.000782,0.06692 c 0,0 -0.114291,0.01202 -0.195533,0.122617 -0.08128,0.110524 -0.129363,0.319621 -0.07338,0.502083 0.05616,0.182464 0.248157,0.345342 0.375996,0.399964 0.127748,0.05456 0.19146,7.41e-4 0.19146,7.41e-4 0,0 0.04181,-0.30881 -0.03193,-0.548693 -0.07374,-0.239877 -0.266692,-0.476744 -0.266692,-0.476744 z m -1.040913,0.575771 a 0.25096246,0.25096246 0 0 0 -0.251047,0.251041 0.25096246,0.25096246 0 0 0 0.251047,0.250845 0.25096246,0.25096246 0 0 0 0.250849,-0.250845 0.25096246,0.25096246 0 0 0 -0.250849,-0.251041 z m 5.9161,0.309448 h 1.155402 c 0,0 0.286912,0.4116 0.369985,0.808051 0.08307,0.396448 0.07554,0.611746 0.07554,0.611746 h -0.460701 c 0,0 -0.147125,-0.354945 -0.494539,-0.743842 -0.347363,-0.388891 -0.653331,-0.445602 -0.653331,-0.445602 z m -2.358782,0.06596 c 0.295291,-0.02313 0.230359,0.370693 0.586797,0.37385 0.380212,0.0034 0.288815,-0.446337 0.657186,-0.352193 0.368369,0.09416 0.07231,0.444754 0.407501,0.624318 0.335141,0.179594 0.462961,-0.260933 0.745389,-0.0065 0.282427,0.25456 -0.14264,0.427351 0.07069,0.742099 0.213296,0.314726 0.53141,-0.01579 0.663178,0.340783 0.131874,0.35665 -0.324771,0.312053 -0.282176,0.689879 0.04252,0.377807 0.477655,0.232781 0.428584,0.60981 -0.04898,0.377033 -0.432478,0.125308 -0.570346,0.479644 -0.08074,0.20757 0.03965,0.319112 0.110703,0.43826 h -1.943152 c -0.0036,-0.0075 -0.0054,-0.01489 -0.01076,-0.02265 -0.0802,-0.146268 -0.285998,-0.306379 -0.515998,-0.33808 -0.143717,-0.01979 -0.306417,0.02257 -0.438847,0.0849 -0.07948,0.03736 -0.148203,0.08198 -0.195336,0.124358 -0.06513,0.05847 -0.08899,0.112569 -0.09725,0.151431 h -1.343204 c 0.06549,-0.134153 0.226161,-0.243465 0.140666,-0.475003 -0.131874,-0.356651 -0.51964,-0.111493 -0.562234,-0.48932 -0.04252,-0.3778 0.389972,-0.225433 0.439026,-0.602458 0.04916,-0.377038 -0.408237,-0.340375 -0.27037,-0.694716 0.137795,-0.354379 0.450132,-0.01834 0.668793,-0.32937 0.218662,-0.311045 -0.203392,-0.49125 0.08343,-0.74094 0.286733,-0.249658 0.407017,0.193327 0.745191,0.01954 0.317019,-0.162933 0.08235,-0.485738 0.356438,-0.597819 0.0183,-0.0075 0.03876,-0.014 0.0619,-0.01954 0.02315,-0.0056 0.04432,-0.009 0.06405,-0.01041 z m -4.388578,0.382556 c -0.07213,-7.41e-4 -0.139051,0.0074 -0.189146,0.02185 -0.13367,0.03841 -0.148921,0.120303 -0.148921,0.120303 0,0 0.162915,0.266037 0.371548,0.40538 0.208721,0.13934 0.507691,0.200947 0.507691,0.200947 0,0 0.0811,-0.08155 0.07428,-0.218549 -0.0072,-0.136989 -0.101553,-0.329367 -0.260323,-0.43536 -0.09922,-0.06625 -0.234773,-0.09314 -0.355093,-0.09457 z m 1.639302,0.04428 c -0.08002,-1.62e-4 -0.163991,0.01417 -0.240406,0.04778 -0.174757,0.07681 -0.314616,0.286226 -0.354124,0.419497 -0.03947,0.133276 0.02153,0.190312 0.02153,0.190312 0,0 0.311781,0.0059 0.54153,-0.09497 0.229767,-0.100961 0.442525,-0.319894 0.442525,-0.319894 v -1.92e-4 c 0,0 -0.02512,-0.112139 -0.144255,-0.180063 -0.0671,-0.0382 -0.163812,-0.06226 -0.266711,-0.06247 z m -3.554985,0.366505 v 1.96e-4 c 0.08361,-0.0038 0.138334,0.05826 0.375403,0.571517 0.252966,0.547472 1.359332,1.129058 1.44996,1.13471 0.09061,0.0056 0.252966,0.09612 0.252966,0.269803 0,0.17368 -0.249288,0.135966 -0.249288,0.135966 h -1.834855 c 0,0 -0.06441,1.28e-4 -0.1965016,-0.01131 -0.132054,-0.01131 -0.09061,-0.468166 -0.06782,-1.042069 0.02261,-0.573906 0.15484,-1.061132 0.2529656,-1.057351 0.0054,-7.42e-4 0.01076,-0.0011 0.01794,-0.0015 z m 6.850635,0.299009 c 0,0 -0.378903,0.0072 -0.653525,0.140415 -0.274622,0.133238 -0.523552,0.409054 -0.523552,0.409054 0,0 0.03607,0.135068 0.183925,0.212166 0.148023,0.07711 0.407896,0.09631 0.61678,-0.005 0.208882,-0.101355 0.369087,-0.362279 0.410983,-0.526064 0.0418,-0.163793 -0.03463,-0.230538 -0.03463,-0.230538 z m 0.703224,0.118561 c 0,0 -0.118597,0.07401 -0.14874,0.238081 -0.03015,0.164062 0.02799,0.418467 0.186257,0.588342 0.15825,0.169876 0.455049,0.245972 0.62392,0.23789 0.168836,-0.0083 0.209851,-0.100764 0.209851,-0.100764 0,0 -0.118238,-0.360165 -0.326277,-0.583506 -0.208075,-0.223329 -0.545011,-0.380038 -0.545011,-0.380037 z m -2.151837,0.975926 c -0.03857,-0.0011 -0.06388,0.0088 -0.07302,0.01309 v 1.94e-4 c -0.0018,0.0011 -0.0036,0.0018 -0.0036,0.0018 0,0 -0.109089,0.363106 -0.06621,0.665317 0.04288,0.302209 0.229373,0.623351 0.229373,0.623351 0,0 0.13941,0.0072 0.258008,-0.110039 0.118599,-0.117272 0.216545,-0.358861 0.183927,-0.58873 -0.03266,-0.229885 -0.232065,-0.462401 -0.375207,-0.552368 -0.06262,-0.03938 -0.114471,-0.05164 -0.153046,-0.0528 z m 1.43372,0.176587 a 0.30523961,0.30523961 0 0 0 -0.115188,0.03016 0.30523961,0.30523961 0 0 0 -0.141384,0.407895 0.30523961,0.30523961 0 0 0 0.407897,0.141186 0.30523961,0.30523961 0 0 0 0.141384,-0.407509 0.30523961,0.30523961 0 0 0 -0.292619,-0.171742 z m 1.51997,0.405765 c -0.09366,-0.0062 -0.212167,0.01889 -0.324915,0.07329 -0.08774,0.04233 -0.171886,0.102504 -0.237697,0.179868 -0.150535,0.176838 -0.192322,0.480143 -0.164709,0.646944 0.02763,0.166754 0.124339,0.196886 0.124339,0.196886 0,0 0.344489,-0.159003 0.542302,-0.391455 0.197829,-0.232462 0.314292,-0.584857 0.314292,-0.584857 v -1.95e-4 c 0,0 -0.08702,-0.109411 -0.253559,-0.120481 z m -8.376597,0.380818 h 3.730209 v 0.759891 l -3.7832096,0.0075 c 0,0 -0.339806,-0.02261 -0.339806,-0.392615 0,-0.370016 0.3928066,-0.374823 0.3928066,-0.374823 z m 4.358974,1.921104 h 5.131453 v 0.635337 l -0.550052,0.01059 -0.224349,0.464561 h 0.432657 v 0.656806 l -3.855354,0.01597 0.01076,-0.630118 2.627035,-0.0054 0.197472,-0.496472 -4.23424,-0.0054 c 0,0 0.01076,-0.05332 0.01615,-0.363024 0.0054,-0.309682 0.4485,-0.282949 0.4485,-0.282949 z m 2.747911,7.469911 c -0.0445,3.73e-4 -0.222214,0.01722 -0.222214,0.248529 0,0.264314 0.178883,0.299003 0.178883,0.299003 l 1.807367,0.0026 v -0.549852 h -1.753989 c 0,0 -0.0036,-2.69e-4 -0.01076,-1.96e-4 z" /><path
       d="m 35.821023,10.016167 -0.01268,4.937178 h -0.0025 v 0.749272 0.05807 l -0.0025,0.807345 h 0.0025 v 1.656403 0.804675 h 1.614728 v -0.804673 -0.699542 l 1.233863,1.504217 h 2.088954 l -2.018508,-2.46108 h 1.92373 V 10.01606 Z m -6.203754,0.009 -0.0099,3.694623 h -0.0025 v 0.807339 l -0.0099,4.501967 h 4.896787 v -3.69462 L 33.80825,14.527129 34.491756,13.71979 v -3.694621 z m 7.813116,1.605819 h 1.603326 v 3.322487 h -1.61067 z m -6.202432,0.009 h 1.648722 v 2.079939 h -1.653732 z m -0.0075,3.694627 h 1.65741 v 2.079932 h -1.662419 z"
       id="path1"
       style="fill:#1a1a19;fill-opacity:1;stroke-width:0.645846"
       sodipodi:nodetypes="cccccccccccccccccccccccccccccccccccccccccccc" /><path
       d="m 76.096153,9.9983819 v 9.0279641 h 1.614691 v -2.226474 h 1.63202 v 2.226454 h 1.614691 V 9.9983469 Z m 1.614691,1.6148191 h 1.63202 v 3.572137 h -1.63202 z"
       style="fill:#1a1a19;fill-opacity:1;stroke-width:0.645846"
       id="path1-1" /><path
       d="m 66.922615,10.021063 v 9.004285 h 1.614672 v -9.004286 z"
       style="fill:#1a1a19;fill-opacity:1;stroke-width:0.645846"
       id="path1-3" /><path
       d="m 60.733189,10.021248 1.476508,8.987568 1.587963,0.0277 1.807274,-9.015275 h -1.646715 l -0.873093,4.355447 -0.715553,-4.355444 z"
       style="fill:#1a1a19;fill-opacity:1;stroke-width:0.645846"
       id="path1-78" /><path
       d="m 54.558102,10.023587 v 5.415108 h 3.243063 v 1.971792 h -3.235721 v 1.614689 h 4.850068 v -5.20082 H 56.172449 V 11.63855 h 3.231695 v -1.614684 z"
       style="fill:#1a1a19;fill-opacity:1;stroke-width:0.645846"
       id="path1-93" /><text
       xml:space="preserve"
       style="font-style:normal;font-variant:normal;font-weight:normal;font-stretch:normal;font-size:5.85111px;font-family:Arial;-inkscape-font-specification:'Arial, @wght=300,wdth=75';font-variant-ligatures:normal;font-variant-caps:normal;font-variant-numeric:normal;font-variant-east-asian:normal;font-variation-settings:'wdth' 75, 'wght' 300;text-align:start;writing-mode:lr-tb;direction:ltr;text-anchor:start;fill:#1a1a19;fill-opacity:1;stroke-width:0.134071;stroke-linecap:round;paint-order:stroke fill markers"
       x="29.418673"
       y="25.491137"
       id="text1"><tspan
         sodipodi:role="line"
         id="tspan1"
         style="font-style:normal;font-variant:normal;font-weight:normal;font-stretch:normal;font-size:5.85111px;font-family:Arial;-inkscape-font-specification:'Arial, @wght=300,wdth=75';font-variant-ligatures:normal;font-variant-caps:normal;font-variant-numeric:normal;font-variant-east-asian:normal;font-variation-settings:'wdth' 75, 'wght' 300;fill:#1a1a19;fill-opacity:1;stroke-width:0.13407"
         x="29.418673"
         y="25.491137">BRAINS OF STEEL</tspan></text><rect
       style="fill:#889e73;fill-opacity:1;stroke-width:0.273807;stroke-linecap:round;paint-order:stroke fill markers"
       id="rect9"
       width="210"
       height="2.9598298"
       x="1.0728836e-06"
       y="0" /><path
       d="m 41.966286,10.043085 v 8.949879 h 4.968881 V 10.043123 H 45.320481 V 17.3783 h -1.739485 v -7.335177 z"
       style="fill:#1a1a19;fill-opacity:1;stroke-width:0.645846"
       id="path1-92" /><path
       d="m 69.854965,10.010384 v 9.025642 h 4.895797 v -4.7683 H 72.50796 v 1.614688 h 0.628121 v 1.538924 H 71.46966 v -5.796249 h 1.694127 v 0.664836 h 1.614689 V 10.0104 Z"
       style="fill:#1a1a19;fill-opacity:1;stroke-width:0.645846"
       id="path1-63" /></g></svg>
